<?xml version="1.0" encoding="UTF-8" standalone="no"?>
<svg width="28px" height="27px" viewBox="0 0 28 27" version="1.1" xmlns="http://www.w3.org/2000/svg" xmlns:xlink="http://www.w3.org/1999/xlink">
    <!-- Generator: Sketch 39.1 (31720) - http://www.bohemiancoding.com/sketch -->
    <title>Home_Icon</title>
    <desc>Created with Sketch.</desc>
    <defs></defs>
    <g id="Symbols" stroke="none" stroke-width="1" fill="none" fill-rule="evenodd">
        <g id="Navigation" transform="translate(-1176.000000, -54.000000)" fill="#00325A">
            <g transform="translate(793.000000, 51.000000)" id="Home_Icon">
                <g transform="translate(383.000000, 3.162450)">
                    <path d="M23.025128,13.1589 C22.578248,13.1589 22.231608,13.5048375 22.231608,13.9570875 L22.231608,24.8673375 L16.596888,24.8673375 L16.596888,20.411775 C16.596888,19.9949625 16.249688,19.6293375 15.831368,19.6293375 L11.757368,19.6293375 C11.308808,19.6293375 10.947608,19.9949625 10.947608,20.411775 L10.947608,24.8673375 L5.326328,24.8673375 L5.326328,14.3199 C5.326328,13.898025 4.980248,13.5487125 4.531688,13.5487125 C4.113368,13.5487125 3.767288,13.898025 3.767288,14.3199 L3.767288,25.66665 C3.767288,26.0868375 4.113368,26.437275 4.531688,26.437275 L11.757368,26.437275 C12.175688,26.437275 12.521768,26.0868375 12.521768,25.66665 L12.521768,21.21165 L15.036168,21.21165 L15.036168,25.66665 C15.036168,26.0868375 15.382808,26.437275 15.831368,26.437275 L23.025128,26.437275 C23.445128,26.437275 23.791208,26.0868375 23.791208,25.66665 L23.791208,13.9570875 C23.791208,13.5048375 23.445128,13.1589 23.025128,13.1589" id="Fill-1"></path>
                    <path d="M27.345976,13.7800688 L21.076216,7.45475625 L21.076216,3.14375625 C21.076216,2.69488125 20.713336,2.34725625 20.266456,2.34725625 C19.846456,2.34725625 19.500376,2.69488125 19.500376,3.14375625 L19.500376,5.87413125 L14.327656,0.64794375 C14.169736,0.48650625 13.981576,0.39988125 13.793416,0.39988125 C13.576696,0.39988125 13.388536,0.48931875 13.230616,0.64794375 L0.240856,13.6940063 C-0.070504,14.0067563 -0.090104,14.5085063 0.240856,14.7959438 C0.529816,15.1300688 1.028216,15.1092563 1.340136,14.7959438 L13.793416,2.31688125 L26.218696,14.9140688 C26.348056,15.0440063 26.536216,15.1176938 26.781496,15.1176938 C26.998216,15.1176938 27.185816,15.0440063 27.345976,14.9140688 C27.634936,14.6238188 27.655656,14.0961938 27.345976,13.7800688" id="Fill-3"></path>
                </g>
            </g>
        </g>
    </g>
</svg>