<?xml version="1.0" encoding="UTF-8" standalone="no"?>
<svg width="40px" height="41px" viewBox="0 0 40 41" version="1.1" xmlns="http://www.w3.org/2000/svg" xmlns:xlink="http://www.w3.org/1999/xlink">
    <!-- Generator: Sketch 39.1 (31720) - http://www.bohemiancoding.com/sketch -->
    <title>Icon_On</title>
    <desc>Created with Sketch.</desc>
    <defs></defs>
    <g id="Desktop" stroke="none" stroke-width="1" fill="none" fill-rule="evenodd">
        <g id="5_Maschinen_unterseite" transform="translate(-74.000000, -880.000000)" fill="#C00418">
            <g id="Übersicht-Maschinen-links" transform="translate(50.000000, 437.000000)">
                <g id="Icons" transform="translate(24.000000, 57.000000)">
                    <g id="Icon_Off" transform="translate(0.000000, 386.000000)">
                        <g>
                            <g id="Group-3" transform="translate(0.000000, 0.281410)">
                                <path d="M19.9125909,38.4115216 C9.93531818,38.4115216 1.81804545,30.245415 1.81804545,20.2081186 C1.81804545,10.1708222 9.93531818,2.00517289 19.9125909,2.00517289 C29.8898636,2.00517289 38.0071364,10.1708222 38.0071364,20.2081186 C38.0071364,30.245415 29.8898636,38.4115216 19.9125909,38.4115216 M19.9125909,0.176052807 C8.91531818,0.176052807 -0.000136363637,9.14468583 -0.000136363637,20.2081186 C-0.000136363637,31.2720087 8.91531818,40.2406417 19.9125909,40.2406417 C30.9098636,40.2406417 39.8253182,31.2720087 39.8253182,20.2081186 C39.8253182,9.14468583 30.9098636,0.176052807 19.9125909,0.176052807" id="Fill-1"></path>
                            </g>
                            <path d="M19.8954091,20.6094276 C20.3972273,20.6094276 20.8045,20.1997047 20.8045,19.6948675 L20.8045,9.32512852 C20.8045,8.82029138 20.3972273,8.41056849 19.8954091,8.41056849 C19.3935909,8.41056849 18.9863182,8.82029138 18.9863182,9.32512852 L18.9863182,19.6948675 C18.9863182,20.1997047 19.3935909,20.6094276 19.8954091,20.6094276" id="Fill-4"></path>
                            <path d="M27.272,11.4039692 C27.1042727,11.2663279 26.932,11.1328022 26.7565455,11.0047638 C26.3501818,10.7075318 25.7824545,10.7976159 25.4865455,11.2050524 C25.1910909,11.6134035 25.2801818,12.1854608 25.6860909,12.4826928 C25.8347273,12.59244 25.9810909,12.7053882 26.1233636,12.8219946 C28.4242727,14.7101038 29.7438182,17.5054565 29.7438182,20.4896659 C29.7438182,25.9431874 25.3333636,30.3801755 19.9129091,30.3801755 C14.492,30.3801755 10.0815455,25.9431874 10.0815455,20.4896659 C10.0815455,17.2630981 11.6529091,14.2308743 14.2851818,12.3784329 C14.6965455,12.0889747 14.7965455,11.5187465 14.5088182,11.1049081 C14.2215455,10.6910697 13.6542727,10.5904681 13.2429091,10.8799263 C10.1247273,13.0739559 8.26336364,16.666805 8.26336364,20.4896659 C8.26336364,26.9519472 13.4892727,32.2092955 19.9129091,32.2092955 C26.3360909,32.2092955 31.562,26.9519472 31.562,20.4896659 C31.562,16.9535195 29.9988182,13.6423549 27.272,11.4039692" id="Fill-6"></path>
                        </g>
                    </g>
                </g>
            </g>
        </g>
    </g>
</svg>