<?xml version="1.0" encoding="UTF-8" standalone="no"?>
<svg width="53px" height="53px" viewBox="0 0 53 53" version="1.1" xmlns="http://www.w3.org/2000/svg" xmlns:xlink="http://www.w3.org/1999/xlink">
    <!-- Generator: Sketch 39.1 (31720) - http://www.bohemiancoding.com/sketch -->
    <title>Icon_Hinweis</title>
    <desc>Created with Sketch.</desc>
    <defs></defs>
    <g id="Desktop" stroke="none" stroke-width="1" fill="none" fill-rule="evenodd">
        <g id="5_Maschinen_unterseite" transform="translate(-881.000000, -1493.000000)" fill="#FFFFFF">
            <g id="Hinweis" transform="translate(458.000000, 1451.000000)">
                <g id="Icon_Hinweis" transform="translate(423.000000, 42.000000)">
                    <path d="M26.2742426,50.292884 C13.0298809,50.292884 2.25509362,39.5180968 2.25509362,26.2737351 C2.25509362,13.0299372 13.0298809,2.25515 26.2742426,2.25515 C39.5180404,2.25515 50.2933915,13.0299372 50.2933915,26.2737351 C50.2933915,39.5180968 39.5180404,50.292884 26.2742426,50.292884 M26.2742426,-0.000169148936 C11.7866362,-0.000169148936 -0.000225531916,11.7866926 -0.000225531916,26.2737351 C-0.000225531916,40.7619053 11.7866362,52.5482032 26.2742426,52.5482032 C40.7618489,52.5482032 52.5487106,40.7619053 52.5487106,26.2737351 C52.5487106,11.7866926 40.7618489,-0.000169148936 26.2742426,-0.000169148936" id="Fill-1"></path>
                    <path d="M27.4398479,28.8473362 L26.2434011,28.8473362 L25.8464649,22.759666 L27.850316,22.759666 L27.4398479,28.8473362 Z M25.9203266,31.6241979 L27.7753266,31.6241979 L27.7753266,29.7810383 L25.9203266,29.7810383 L25.9203266,31.6241979 Z M12.1730287,36.2814319 L41.5237521,36.2814319 L26.8483904,11.3359106 L12.1730287,36.2814319 Z" id="Fill-4"></path>
                </g>
            </g>
        </g>
    </g>
</svg>