<?xml version="1.0" encoding="UTF-8" standalone="no"?>
<svg width="30px" height="31px" viewBox="0 0 30 31" version="1.1" xmlns="http://www.w3.org/2000/svg" xmlns:xlink="http://www.w3.org/1999/xlink">
    <!-- Generator: Sketch 39.1 (31720) - http://www.bohemiancoding.com/sketch -->
    <title>Icon_Analytics</title>
    <desc>Created with Sketch.</desc>
    <defs>
        <polygon id="path-1" points="0 30.1761757 29.7860205 30.1761757 29.7860205 0.25713954 0 0.25713954"></polygon>
    </defs>
    <g id="Desktop" stroke="none" stroke-width="1" fill="none" fill-rule="evenodd">
        <g id="3_Startseite" transform="translate(-149.000000, -171.000000)">
            <g id="Navi-Dropdown" transform="translate(50.000000, 114.000000)">
                <g id="Icon_Analytics" transform="translate(99.000000, 57.000000)">
                    <g id="Group-3" transform="translate(0.000000, 0.063948)">
                        <mask id="mask-2" fill="white">
                            <use xlink:href="#path-1"></use>
                        </mask>
                        <g id="Clip-2"></g>
                        <path d="M14.8930422,28.8920831 C7.38605355,28.8920831 1.27825586,22.7573308 1.27825586,15.2164971 C1.27825586,7.67598445 7.38605355,1.54123212 14.8930422,1.54123212 C22.4000308,1.54123212 28.5078285,7.67598445 28.5078285,15.2164971 C28.5078285,22.7573308 22.4000308,28.8920831 14.8930422,28.8920831 M14.8930422,0.25713954 C6.68102494,0.25713954 -0.000127838369,6.96780739 -0.000127838369,15.2164971 C-0.000127838369,23.4655079 6.68102494,30.1761757 14.8930422,30.1761757 C23.1050594,30.1761757 29.7862122,23.4655079 29.7862122,15.2164971 C29.7862122,6.96780739 23.1050594,0.25713954 14.8930422,0.25713954" id="Fill-1" fill="#00325A" mask="url(#mask-2)"></path>
                    </g>
                    <path d="M22.8648512,21.2665956 L9.44501833,21.2665956 L9.12733998,21.2730161 L12.3977651,16.9815787 L15.2018997,18.3298759 L18.6810209,12.5466439 L22.1649361,13.8191797 C22.5791324,13.9697395 23.0380721,13.7556171 23.189241,13.3389291 C23.3397707,12.922562 23.125961,12.4618938 22.7111255,12.3103709 L17.9926113,10.5871186 L14.5841208,16.2534982 L11.917732,14.9713317 L8.30693724,19.7089913 L8.30693724,9.97300136 C8.30693724,9.57942699 7.9889393,9.25968793 7.5967951,9.25968793 C7.2049705,9.25968793 6.88665296,9.57942699 6.88665296,9.97300136 L6.88665296,21.9808721 C6.88665296,22.3744465 7.2046509,22.6935435 7.5967951,22.6935435 L22.8648512,22.6935435 C23.2566758,22.6935435 23.5749933,22.3741255 23.5749933,21.9802301 C23.5749933,21.5863347 23.2569954,21.2665956 22.8648512,21.2665956" id="Fill-4" fill="#00325A"></path>
                </g>
            </g>
        </g>
    </g>
</svg>