<?xml version="1.0" encoding="UTF-8" standalone="no"?>
<svg width="30px" height="31px" viewBox="0 0 30 31" version="1.1" xmlns="http://www.w3.org/2000/svg" xmlns:xlink="http://www.w3.org/1999/xlink">
    <!-- Generator: Sketch 39.1 (31720) - http://www.bohemiancoding.com/sketch -->
    <title>Icon_Apps</title>
    <desc>Created with Sketch.</desc>
    <defs></defs>
    <g id="Desktop" stroke="none" stroke-width="1" fill="none" fill-rule="evenodd">
        <g id="3_Startseite" transform="translate(-1123.000000, -173.000000)" fill="#00325A">
            <g id="Navi-Dropdown" transform="translate(50.000000, 114.000000)">
                <g id="Icon_Apps" transform="translate(1073.000000, 59.000000)">
                    <g id="Group-3" transform="translate(0.000000, 0.063888)">
                        <path d="M14.9455954,28.8651316 C7.41211678,28.8651316 1.28276645,22.736102 1.28276645,15.2023026 C1.28276645,7.66882401 7.41211678,1.53979441 14.9455954,1.53979441 C22.479074,1.53979441 28.6084243,7.66882401 28.6084243,15.2023026 C28.6084243,22.736102 22.479074,28.8651316 14.9455954,28.8651316 M14.9455954,0.256899671 C6.70460033,0.256899671 -0.000128289474,6.96130757 -0.000128289474,15.2023026 C-0.000128289474,23.4436184 6.70460033,30.1480263 14.9455954,30.1480263 C23.1865905,30.1480263 29.8913191,23.4436184 29.8913191,15.2023026 C29.8913191,6.96130757 23.1865905,0.256899671 14.9455954,0.256899671" id="Fill-1"></path>
                    </g>
                    <path d="M10.0223586,17.216736 L8.90784375,17.216736 C8.14163487,17.216736 7.51462007,16.5897212 7.51462007,15.8235123 L7.51462007,14.7089975 C7.51462007,13.9427887 8.14163487,13.3157738 8.90784375,13.3157738 L10.0223586,13.3157738 C10.7885674,13.3157738 11.4155822,13.9427887 11.4155822,14.7089975 L11.4155822,15.8235123 C11.4155822,16.5897212 10.7885674,17.216736 10.0223586,17.216736" id="Fill-4"></path>
                    <path d="M10.0223586,22.6972623 L8.90784375,22.6972623 C8.14163487,22.6972623 7.51462007,22.0702475 7.51462007,21.3040387 L7.51462007,20.1895238 C7.51462007,19.423315 8.14163487,18.7963002 8.90784375,18.7963002 L10.0223586,18.7963002 C10.7885674,18.7963002 11.4155822,19.423315 11.4155822,20.1895238 L11.4155822,21.3040387 C11.4155822,22.0702475 10.7885674,22.6972623 10.0223586,22.6972623" id="Fill-6"></path>
                    <path d="M10.0223586,11.7362418 L8.90784375,11.7362418 C8.14163487,11.7362418 7.51462007,11.109227 7.51462007,10.3430181 L7.51462007,9.22850329 C7.51462007,8.46229441 8.14163487,7.83527961 8.90784375,7.83527961 L10.0223586,7.83527961 C10.7885674,7.83527961 11.4155822,8.46229441 11.4155822,9.22850329 L11.4155822,10.3430181 C11.4155822,11.109227 10.7885674,11.7362418 10.0223586,11.7362418" id="Fill-8"></path>
                    <path d="M15.5028528,17.216736 L14.388338,17.216736 C13.6221291,17.216736 12.9951143,16.5897212 12.9951143,15.8235123 L12.9951143,14.7089975 C12.9951143,13.9427887 13.6221291,13.3157738 14.388338,13.3157738 L15.5028528,13.3157738 C16.2690617,13.3157738 16.8960765,13.9427887 16.8960765,14.7089975 L16.8960765,15.8235123 C16.8960765,16.5897212 16.2690617,17.216736 15.5028528,17.216736" id="Fill-10"></path>
                    <path d="M15.5028528,22.6972623 L14.388338,22.6972623 C13.6221291,22.6972623 12.9951143,22.0702475 12.9951143,21.3040387 L12.9951143,20.1895238 C12.9951143,19.423315 13.6221291,18.7963002 14.388338,18.7963002 L15.5028528,18.7963002 C16.2690617,18.7963002 16.8960765,19.423315 16.8960765,20.1895238 L16.8960765,21.3040387 C16.8960765,22.0702475 16.2690617,22.6972623 15.5028528,22.6972623" id="Fill-12"></path>
                    <path d="M15.5028528,11.7362418 L14.388338,11.7362418 C13.6221291,11.7362418 12.9951143,11.109227 12.9951143,10.3430181 L12.9951143,9.22850329 C12.9951143,8.46229441 13.6221291,7.83527961 14.388338,7.83527961 L15.5028528,7.83527961 C16.2690617,7.83527961 16.8960765,8.46229441 16.8960765,9.22850329 L16.8960765,10.3430181 C16.8960765,11.109227 16.2690617,11.7362418 15.5028528,11.7362418" id="Fill-14"></path>
                    <path d="M20.9833791,17.216736 L19.8688643,17.216736 C19.1026554,17.216736 18.4756406,16.5897212 18.4756406,15.8235123 L18.4756406,14.7089975 C18.4756406,13.9427887 19.1026554,13.3157738 19.8688643,13.3157738 L20.9833791,13.3157738 C21.749588,13.3157738 22.3766028,13.9427887 22.3766028,14.7089975 L22.3766028,15.8235123 C22.3766028,16.5897212 21.749588,17.216736 20.9833791,17.216736" id="Fill-16"></path>
                    <path d="M20.9833791,22.6972623 L19.8688643,22.6972623 C19.1026554,22.6972623 18.4756406,22.0702475 18.4756406,21.3040387 L18.4756406,20.1895238 C18.4756406,19.423315 19.1026554,18.7963002 19.8688643,18.7963002 L20.9833791,18.7963002 C21.749588,18.7963002 22.3766028,19.423315 22.3766028,20.1895238 L22.3766028,21.3040387 C22.3766028,22.0702475 21.749588,22.6972623 20.9833791,22.6972623" id="Fill-18"></path>
                    <path d="M20.9833791,11.7362418 L19.8688643,11.7362418 C19.1026554,11.7362418 18.4756406,11.109227 18.4756406,10.3430181 L18.4756406,9.22850329 C18.4756406,8.46229441 19.1026554,7.83527961 19.8688643,7.83527961 L20.9833791,7.83527961 C21.749588,7.83527961 22.3766028,8.46229441 22.3766028,9.22850329 L22.3766028,10.3430181 C22.3766028,11.109227 21.749588,11.7362418 20.9833791,11.7362418" id="Fill-20"></path>
                </g>
            </g>
        </g>
    </g>
</svg>