<?xml version="1.0" encoding="UTF-8" standalone="no"?>
<svg width="30px" height="31px" viewBox="0 0 30 31" version="1.1" xmlns="http://www.w3.org/2000/svg" xmlns:xlink="http://www.w3.org/1999/xlink">
    <!-- Generator: Sketch 39.1 (31720) - http://www.bohemiancoding.com/sketch -->
    <title>Icon_Machines</title>
    <desc>Created with Sketch.</desc>
    <defs></defs>
    <g id="Desktop" stroke="none" stroke-width="1" fill="none" fill-rule="evenodd">
        <g id="3_Startseite" transform="translate(-476.000000, -170.000000)" fill="#00325A">
            <g id="Navi-Dropdown" transform="translate(50.000000, 114.000000)">
                <g id="Icon_Machines" transform="translate(426.000000, 56.000000)">
                    <path d="M22.048283,22.814418 C22.1407163,22.7216424 22.21569,22.6466687 22.21569,22.6466687 L22.3827546,22.4792618 C22.4751879,22.3864861 22.3173666,21.9578696 22.0301387,21.5220637 L21.2930688,20.403621 C21.0058409,19.9678151 20.5518908,19.5676132 20.2786991,19.5104415 C20.0055074,19.4529275 19.7840098,19.4060262 19.7840098,19.4060262 L17.5635569,17.1866002 L16.7552791,17.9955627 L18.9740204,20.2153309 L19.0787781,20.7100202 C19.1366345,20.9828696 19.5368364,21.4375044 19.9726422,21.7243899 L21.0917697,22.4621445 C21.5275755,22.74903 21.9558497,22.9071936 22.048283,22.814418" id="Fill-1"></path>
                    <path d="M8.43138782,11.244167 L11.7309138,14.5436929 L12.1430978,14.9548499 C12.1523411,14.9647779 12.1615844,14.9702554 12.1708278,14.9798411 L12.7158418,14.4344847 L8.82371577,10.5423587 C8.72888606,10.448556 8.72888606,10.2945005 8.82371577,10.2013825 C8.91751843,10.1062105 9.06917749,10.1062105 9.16434954,10.2013825 L13.0554486,14.0945356 L13.6624271,13.4861877 L9.77030109,9.59474631 C9.67512904,9.5006013 9.67512904,9.3479152 9.77030109,9.25377019 C9.86410376,9.15996752 10.0167899,9.15996752 10.1099078,9.25377019 L14.0037456,13.1479503 L14.5477326,12.6019092 C14.5398587,12.5923236 14.5336965,12.5823955 14.5251378,12.5731522 L14.0927554,12.1400851 L10.8141125,8.86246928 C10.1564668,8.20345418 9.08869119,8.20448121 8.43138782,8.86246928 C7.77271506,9.52011499 7.77271506,10.5865212 8.43138782,11.244167" id="Fill-3"></path>
                    <path d="M10.6500606,21.7744408 C10.2413,22.1811473 9.58331197,22.1811473 9.17557848,21.7734138 C8.76989905,21.3687614 8.76887202,20.7076922 9.17660551,20.3020128 C9.58331197,19.8963334 10.2409577,19.8973604 10.6486912,20.3020128 C11.054713,20.7076922 11.054713,21.3687614 10.6500606,21.7744408 M22.465431,11.533175 C22.4257189,11.0128099 21.9656066,10.9114756 21.5969005,11.2805241 L20.3076273,12.5697972 C20.0084173,12.8714036 19.5181785,12.8703766 19.2179415,12.5697972 L18.3826185,11.7355012 C18.0803274,11.4314984 18.0810121,10.942629 18.3815915,10.6410226 L19.7146849,9.30929863 C20.0837333,8.94059252 19.990273,8.46370523 19.4719619,8.40208304 C18.4695743,8.28226211 17.4250781,8.60646331 16.6554854,9.37537131 C16.0690476,9.9628362 15.7417653,10.7115458 15.6726115,11.4783998 C15.6448815,11.7882224 15.65926,12.1011262 15.7150623,12.4085525 L8.56141064,19.5625465 C8.18380355,19.9408383 7.97531513,20.4423745 7.97531513,20.9771182 C7.97531513,21.5104925 8.18380355,22.0116863 8.5603836,22.388951 C9.33990432,23.1681294 10.6076097,23.1681294 11.3881575,22.388951 C11.3881575,22.388951 16.530187,17.2476062 18.6126747,15.1627221 C18.939957,15.2075693 19.2713474,15.2044882 19.5972604,15.1527941 C20.2860595,15.0449552 20.9478134,14.7293127 21.4794759,14.1986771 C22.2103836,13.4677695 22.5383506,12.488319 22.465431,11.533175" id="Fill-5"></path>
                    <g id="Group-9" transform="translate(0.000000, 0.022903)">
                        <path d="M14.9034981,0.319442591 C6.67248508,0.319442591 0.000171172753,6.99209884 -0.000171172753,15.2227695 C-0.000171172753,23.4537825 6.67248508,30.1264387 14.9034981,30.1264387 C23.1345111,30.1264387 29.806825,23.4537825 29.806825,15.2227695 C29.806825,6.99209884 23.1345111,0.319442591 14.9034981,0.319442591 M14.9034981,1.68882461 C22.3662877,1.68882461 28.4374429,7.76032216 28.4374429,15.2227695 C28.4374429,22.6855592 22.3662877,28.7570567 14.9034981,28.7570567 C7.44070839,28.7570567 1.36921085,22.6855592 1.36921085,15.2227695 C1.3695532,7.76032216 7.44070839,1.68882461 14.9034981,1.68882461" id="Fill-7"></path>
                    </g>
                </g>
            </g>
        </g>
    </g>
</svg>