<?xml version="1.0" encoding="UTF-8" standalone="no"?>
<svg width="15px" height="15px" viewBox="0 0 15 15" version="1.1" xmlns="http://www.w3.org/2000/svg" xmlns:xlink="http://www.w3.org/1999/xlink">
    <!-- Generator: Sketch 39.1 (31720) - http://www.bohemiancoding.com/sketch -->
    <title>Icon_Lupe_klein</title>
    <desc>Created with Sketch.</desc>
    <defs></defs>
    <g id="Symbols" stroke="none" stroke-width="1" fill="none" fill-rule="evenodd">
        <g id="Navigation" transform="translate(-1078.000000, -54.000000)" fill="#00325A">
            <g transform="translate(793.000000, 51.000000)" id="Icon_Lupe_klein">
                <path d="M293.652127,10.7929738 L293.283188,11.3103947 L292.766848,11.6781842 C292.128977,12.1340176 291.383055,12.3742952 290.605392,12.3742952 C288.544813,12.3742952 286.867957,10.6921353 286.867957,8.62570479 C286.867957,6.55623825 288.544813,4.87429521 290.605392,4.87429521 C292.668363,4.87429521 294.342828,6.55623825 294.342828,8.62570479 C294.345219,9.40378777 294.104333,10.1519445 293.652127,10.7929738 M299.677549,16.3952581 L295.173538,11.8798612 C295.82554,10.9599537 296.213176,9.83858609 296.213176,8.62570479 C296.213176,5.51749313 293.702566,3 290.605392,3 C287.509958,3 285,5.51749313 285,8.62570479 C285,11.7310973 287.509958,14.2485904 290.605392,14.2485904 C291.816564,14.2485904 292.934251,13.8595489 293.849532,13.2074599 L298.353543,17.7230736 C298.535078,17.9056672 298.775964,18 299.014242,18 C299.25578,18 299.494275,17.9056672 299.677549,17.7230736 C300.042357,17.3568021 300.042357,16.7615296 299.677549,16.3952581"></path>
            </g>
        </g>
    </g>
</svg>