<?xml version="1.0" encoding="UTF-8" standalone="no"?>
<svg width="40px" height="41px" viewBox="0 0 40 41" version="1.1" xmlns="http://www.w3.org/2000/svg" xmlns:xlink="http://www.w3.org/1999/xlink">
    <!-- Generator: Sketch 39.1 (31720) - http://www.bohemiancoding.com/sketch -->
    <title>Icon_On</title>
    <desc>Created with Sketch.</desc>
    <defs></defs>
    <g id="Desktop" stroke="none" stroke-width="1" fill="none" fill-rule="evenodd">
        <g id="5_Maschinen_unterseite" transform="translate(-74.000000, -1261.000000)" fill="#A1AE43">
            <g id="Übersicht-Maschinen-links" transform="translate(50.000000, 437.000000)">
                <g id="Icons" transform="translate(24.000000, 57.000000)">
                    <g id="Icon_On" transform="translate(0.000000, 767.000000)">
                        <g>
                            <g id="Group-3" transform="translate(0.000000, 0.280772)">
                                <path d="M19.9125909,38.3244207 C9.93531818,38.3244207 1.81804545,30.1768313 1.81804545,20.1622952 C1.81804545,10.1477591 9.93531818,2.00062601 19.9125909,2.00062601 C29.8898636,2.00062601 38.0071364,10.1477591 38.0071364,20.1622952 C38.0071364,30.1768313 29.8898636,38.3244207 19.9125909,38.3244207 M19.9125909,0.175653595 C8.91531818,0.175653595 -0.000136363636,9.12394958 -0.000136363636,20.1622952 C-0.000136363636,31.2010971 8.91531818,40.1493931 19.9125909,40.1493931 C30.9098636,40.1493931 39.8253182,31.2010971 39.8253182,20.1622952 C39.8253182,9.12394958 30.9098636,0.175653595 19.9125909,0.175653595" id="Fill-1"></path>
                            </g>
                            <path d="M19.8954091,20.5626942 C20.3972273,20.5626942 20.8045,20.1539003 20.8045,19.650208 L20.8045,9.30398311 C20.8045,8.80029072 20.3972273,8.3914969 19.8954091,8.3914969 C19.3935909,8.3914969 18.9863182,8.80029072 18.9863182,9.30398311 L18.9863182,19.650208 C18.9863182,20.1539003 19.3935909,20.5626942 19.8954091,20.5626942" id="Fill-4"></path>
                            <path d="M27.272,11.3781099 C27.1042727,11.2407807 26.932,11.1075577 26.7565455,10.9798097 C26.3501818,10.6832516 25.7824545,10.7731315 25.4865455,11.1796441 C25.1910909,11.5870692 25.2801818,12.1578293 25.6860909,12.4543874 C25.8347273,12.5638857 25.9810909,12.6765778 26.1233636,12.7929197 C28.4242727,14.6767475 29.7438182,17.4657616 29.7438182,20.4432041 C29.7438182,25.8843593 25.3333636,30.3112862 19.9129091,30.3112862 C14.492,30.3112862 10.0815455,25.8843593 10.0815455,20.4432041 C10.0815455,17.2239528 11.6529091,14.1986047 14.2851818,12.3503639 C14.6965455,12.061562 14.7965455,11.4926269 14.5088182,11.0797269 C14.2215455,10.6668269 13.6542727,10.5664534 13.2429091,10.8552553 C10.1247273,13.0443097 8.26336364,16.6290118 8.26336364,20.4432041 C8.26336364,26.8908316 13.4892727,32.1362586 19.9129091,32.1362586 C26.3360909,32.1362586 31.562,26.8908316 31.562,20.4432041 C31.562,16.9150762 29.9988182,13.6114199 27.272,11.3781099" id="Fill-6"></path>
                        </g>
                    </g>
                </g>
            </g>
        </g>
    </g>
</svg>