<?xml version="1.0" encoding="UTF-8" standalone="no"?>
<svg width="24px" height="25px" viewBox="0 0 24 25" version="1.1" xmlns="http://www.w3.org/2000/svg" xmlns:xlink="http://www.w3.org/1999/xlink">
    <!-- Generator: Sketch 39.1 (31720) - http://www.bohemiancoding.com/sketch -->
    <title>Icon_Profil</title>
    <desc>Created with Sketch.</desc>
    <defs>
        <polygon id="path-1" points="23.4321607 0.0930039788 0.000138420159 0.0930039788 0.000138420159 24.6105125 23.4321607 24.6105125 23.4321607 0.0930039788"></polygon>
    </defs>
    <g id="Symbols" stroke="none" stroke-width="1" fill="none" fill-rule="evenodd">
        <g id="Navigation" transform="translate(-1251.000000, -55.000000)">
            <g transform="translate(793.000000, 51.000000)" id="Icon_Profil">
                <g transform="translate(458.000000, 4.000000)">
                    <mask id="mask-2" fill="white">
                        <use xlink:href="#path-1"></use>
                    </mask>
                    <g id="Clip-2"></g>
                    <path d="M23.4315309,22.4372882 C23.1762991,17.6032733 18.8207206,15.6035312 18.8207206,15.6035312 C17.7803294,15.1181569 15.8935608,14.1680758 14.6566443,13.5402207 C16.2414043,11.8107224 16.7094862,8.99085433 16.7823199,8.58940281 C17.1132107,6.77410293 16.9465095,4.5269765 16.9465095,4.5269765 C16.644187,0.157042072 12.2211118,0.0884633805 11.7580529,0.0931605511 L11.7156713,0.0931605511 L11.6808241,0.0931605511 C11.2607748,0.0878370911 6.78903912,0.131990495 6.48514694,4.5269765 C6.48514694,4.5269765 6.31844576,6.77378979 6.64933662,8.58940281 C6.80316634,9.25107759 7.08633859,10.5143033 7.33340796,11.0836004 C7.7126453,11.9478798 8.12013708,12.8249982 8.77564004,13.5402207 C7.53872354,14.168389 5.65289678,15.1181569 4.61124984,15.6035312 C4.61124984,15.6035312 0.256299145,17.6032733 0.000753451676,22.4372882 C0.000753451676,22.4372882 -0.0749056542,23.2411306 1.45208974,23.5455073 C1.45208974,23.5455073 6.13071072,24.6105125 11.7162991,24.6105125 C17.3022015,24.6105125 21.9811364,23.5455073 21.9811364,23.5455073 C23.5078179,23.2411306 23.4315309,22.4372882 23.4315309,22.4372882" id="Fill-1" fill="#00325A" mask="url(#mask-2)"></path>
                </g>
            </g>
        </g>
    </g>
</svg>