<?xml version="1.0" encoding="UTF-8" standalone="no"?>
<svg width="557px" height="104px" viewBox="0 0 557 104" version="1.1" xmlns="http://www.w3.org/2000/svg" xmlns:xlink="http://www.w3.org/1999/xlink">
    <!-- Generator: Sketch 39.1 (31720) - http://www.bohemiancoding.com/sketch -->
    <title>KM Group Modul</title>
    <desc>Created with Sketch.</desc>
    <defs>
        <polygon id="path-1" points="0 103.196565 373.557692 103.196565 373.557692 0.0119072959 0 0.0119072959"></polygon>
    </defs>
    <g id="Symbols" stroke="none" stroke-width="1" fill="none" fill-rule="evenodd">
        <g id="KM-Group-Modul">
            <g>
                <polygon id="Fill-1" fill="#AFAFAF" points="0 0 0 104 355.615923 104 376.512359 0"></polygon>
                <polygon id="Fill-1" fill="#AFAFAF" points="180 0 180 104 535.615923 104 556.512359 0"></polygon>
                <g id="Group-36" transform="translate(49.049304, 27.802685)" fill="#FFFFFF">
                    <path d="M27.9305907,6.51289397 C28.0943203,6.51289397 28.3033536,6.52956419 28.427343,6.55099732 L27.7016873,10.1485883 C27.2581869,9.95489632 26.7685879,9.88424637 26.3703913,9.88424637 C24.9254383,9.88424637 23.6283188,10.9884496 23.2746312,12.7546985 L21.4529414,21.8693366 L17.79605,21.8693366 L20.7964336,6.84232916 L24.3333096,6.84232916 L24.0400271,8.19261652 C24.8968254,7.16144469 26.3378043,6.51289397 27.9305907,6.51289397" id="Fill-2"></path>
                    <path d="M57.2432654,6.84264669 L54.2707,21.8688604 L50.7624369,21.8688604 L50.9961091,20.5527072 C49.997041,21.5807038 48.3827949,22.1998832 46.7931877,22.1998832 C44.9945472,22.1998832 42.874806,20.994071 42.8724215,17.9315145 C42.8740111,17.3139227 42.9614395,16.7550737 43.0496627,16.2549672 L44.9341421,6.84264669 L48.5894438,6.84264669 L46.7629852,16.0207904 C46.7049645,16.3454627 46.6453542,16.72729 46.6453542,17.0202094 C46.646149,18.3443008 47.5601732,18.933315 48.4726077,18.933315 C49.5042628,18.933315 51.2933657,18.4054249 51.7638894,15.9922129 L53.5879637,6.84264669 L57.2432654,6.84264669 Z" id="Fill-4"></path>
                    <path d="M83.6708826,7.4005432 L83.0533202,10.4678626 C82.5812068,10.2146341 81.1505604,9.5168666 79.0220763,9.5168666 C77.1662099,9.5168666 76.2664922,10.4281716 76.2664922,11.3712295 C76.2664922,12.0173987 76.7401952,12.3714423 77.6788582,12.518299 L79.65474,12.8429713 C82.3976072,13.2835412 83.3688572,14.6965403 83.373626,16.8152452 C83.3744208,18.3449358 82.7218871,19.5531294 81.7180501,20.5207957 C80.4829253,21.7289893 78.509428,22.1997244 76.5327514,22.1997244 C74.5664073,22.1997244 72.3592377,21.3971727 71.3538112,20.7716427 L72.0397267,17.353455 C72.8544004,18.0424905 74.7881575,19.0823943 76.7688081,19.0823943 C78.861526,19.0823943 79.743758,18.0805938 79.743758,17.1700826 C79.7421684,16.3453039 79.1858059,16.050003 78.3003946,15.9063216 L76.2943104,15.5808555 C73.4950121,15.1085328 72.6111905,13.5502646 72.6111905,12.1071004 C72.6096009,10.6941013 73.1445037,9.30967965 74.1737743,8.28009546 C75.3230604,7.13223213 77.089114,6.51305274 79.2724394,6.51305274 C80.8620466,6.51305274 82.653534,6.89329239 83.6708826,7.4005432" id="Fill-6"></path>
                    <path d="M161.726319,0.516776644 C160.520602,0.516776644 159.497689,1.49476255 159.451591,2.70057472 C159.403903,3.90559307 160.347334,4.88754808 161.553846,4.88754808 C162.763537,4.88754808 163.780886,3.90559307 163.827779,2.70057472 C163.875468,1.49476255 162.932036,0.516776644 161.726319,0.516776644" id="Fill-8"></path>
                    <path d="M149.290265,9.47249207 C150.616792,9.47249207 151.45531,10.4012612 151.45531,11.9896944 C151.45531,12.2794386 151.43544,12.616812 151.386957,12.9168759 L145.764516,12.9168759 C146.452816,10.5195403 147.749936,9.47249207 149.290265,9.47249207 L149.290265,9.47249207 Z M154.446156,15.5737905 C154.710031,14.3679783 154.934166,13.0184848 154.93496,11.9896944 C154.934166,8.66279595 152.765147,6.4678844 149.499299,6.4678844 C144.220213,6.4678844 141.671278,11.6642283 141.674457,16.8153246 C141.671278,20.847135 144.653381,22.2426701 147.641843,22.2426701 C149.941209,22.2426701 151.646063,21.7973372 152.878803,21.2718285 L153.551207,17.9203216 C152.858139,18.3108809 151.099238,19.1555051 148.204564,19.1555051 C145.95209,19.1555051 145.152518,18.0528895 145.150928,16.5501888 C145.149338,16.205671 145.198616,15.9230712 145.252663,15.5706152 L154.446156,15.5737905 Z" id="Fill-10"></path>
                    <polygon id="Fill-12" points="162.61165 6.99061469 159.621599 21.8691779 155.963913 21.8691779 158.953169 6.99061469"></polygon>
                    <path d="M117.838615,16.3451451 C117.693961,17.1087997 117.401473,17.8152993 116.926975,18.2868282 C116.366639,18.8456773 115.544812,19.2282984 114.540975,19.2282984 C113.188219,19.2282984 112.429977,18.3352512 112.429977,17.4834826 C112.429977,16.1220818 113.447325,15.0480437 115.139462,15.0480437 L118.099311,15.0480437 L117.838615,16.3451451 Z M117.043017,6.51289397 C114.685629,6.51289397 112.96329,6.89472126 112.399774,7.085238 L111.736113,10.3875281 C112.672392,9.99299967 114.43765,9.57386285 116.393662,9.57386285 C118.026189,9.57386285 118.797148,10.1922484 118.797148,11.2218326 C118.798738,11.5171336 118.760587,11.7521042 118.707335,12.0164462 L118.612754,12.4887689 L114.797697,12.4887689 C111.551719,12.4887689 108.83349,14.6622473 108.83349,18.1399716 C108.838259,20.4650695 110.710816,22.1709881 113.391689,22.1709881 C115.071109,22.1709881 116.248213,21.5256127 117.105011,20.6690812 L116.869749,21.8693366 L120.376423,21.8693366 L122.335614,12.1347253 C122.416684,11.7235267 122.479473,11.1940489 122.479473,10.7804688 C122.479473,7.51231301 119.604669,6.51289397 117.043017,6.51289397 L117.043017,6.51289397 Z" id="Fill-14"></path>
                    <path d="M70.2227262,7.4005432 L69.6067534,10.4678626 C69.1354348,10.2146341 67.7055832,9.5168666 65.5763043,9.5168666 C63.7204379,9.5168666 62.8183358,10.4281716 62.8183358,11.3712295 C62.8183358,12.0173987 63.2928336,12.3714423 64.2314966,12.518299 L66.2081732,12.8429713 C68.9502456,13.2835412 69.9222904,14.6965403 69.9254696,16.8152452 C69.927854,18.3449358 69.2753203,19.5531294 68.2730729,20.5207957 C67.0355637,21.7289893 65.0628612,22.1997244 63.0861846,22.1997244 C61.1198405,22.1997244 58.9134657,21.3971727 57.908834,20.7716427 L58.5939547,17.353455 C59.4078336,18.0424905 61.3423855,19.0823943 63.3238309,19.0823943 C65.415754,19.0823943 66.297986,18.0805938 66.2963964,17.1700826 C66.2956016,16.3453039 65.7384443,16.050003 64.8554175,15.9063216 L62.8493332,15.5808555 C60.0500349,15.1085328 59.1638289,13.5502646 59.1638289,12.1071004 C59.1622393,10.6941013 59.6979369,9.30967965 60.7287972,8.28009546 C61.8772884,7.13223213 63.643342,6.51305274 65.824283,6.51305274 C67.4154798,6.51305274 69.2061724,6.89329239 70.2227262,7.4005432" id="Fill-16"></path>
                    <path d="M125.458397,7.16136531 L127.183916,7.16136531 L127.561448,5.27683727 C128.100324,2.60087096 129.740004,1.06879888 132.5703,1.06879888 L134.709911,1.06879888 L134.089169,4.15913909 L132.827021,4.15913909 C131.942405,4.15913909 131.351071,4.63066801 131.143627,5.6602522 L130.842397,7.16136531 L135.831379,7.16136531 L136.211295,5.27683727 C136.747788,2.60087096 138.388262,1.06879888 141.220147,1.06879888 L143.360553,1.06879888 L142.739812,4.15913909 L141.474485,4.15913909 C140.590663,4.15913909 140.000124,4.63066801 139.793475,5.6602522 L139.492244,7.16136531 L142.200935,7.16136531 L141.638214,9.95561076 L138.929523,9.95561076 L136.535575,21.8692573 L132.877094,21.8692573 L135.271042,9.95561076 L130.279676,9.95561076 L127.885727,21.8692573 L124.228041,21.8692573 L126.621195,9.95561076 L124.896471,9.95561076 L125.458397,7.16136531 Z" id="Fill-18"></path>
                    <path d="M36.189236,16.3451451 C36.0453765,17.1087997 35.752094,17.8152993 35.2775963,18.2868282 C34.7196441,18.8456773 33.8954328,19.2282984 32.8923907,19.2282984 C31.5396349,19.2282984 30.7821871,18.3352512 30.7821871,17.4834826 C30.7821871,16.1220818 31.7987409,15.0480437 33.490083,15.0480437 L36.4499316,15.0480437 L36.189236,16.3451451 Z M35.3928428,6.51289397 C33.0346605,6.51289397 31.3147055,6.89472126 30.7511898,7.085238 L30.0859391,10.3875281 C31.0230126,9.99299967 32.7882714,9.57386285 34.744283,9.57386285 C36.3783992,9.57386285 37.1485639,10.1922484 37.1477691,11.2218326 C37.1493587,11.5171336 37.112003,11.7521042 37.0587511,12.0164462 L36.9649643,12.4887689 L33.1483174,12.4887689 C29.9031343,12.4887689 27.1857008,14.6622473 27.1857008,18.1399716 C27.1864956,20.4650695 29.0614373,22.1709881 31.7431046,22.1709881 C33.4217298,22.1709881 34.6020132,21.5256127 35.4564271,20.6690812 L35.2203704,21.8693366 L38.7278387,21.8693366 L40.6862348,12.1347253 C40.7680995,11.7235267 40.830889,11.1940489 40.830889,10.7804688 C40.830889,7.51231301 37.9560844,6.51289397 35.3928428,6.51289397 L35.3928428,6.51289397 Z" id="Fill-20"></path>
                    <polygon id="Fill-22" points="7.00047115 9.93155802 15.5620955 1.06856074 20.5431297 1.06856074 12.0975466 9.37747185 16.8425241 21.8690191 12.4504394 21.8690191 9.12021236 12.3082543 5.88218249 15.4938529 4.60016428 21.8690191 0.700063011 21.8690191 4.87993515 1.06856074 8.78242083 1.06856074"></polygon>
                    <polygon id="Fill-24" points="91.6443523 1.06848136 95.2249425 1.06848136 98.2006872 12.2534014 105.802984 1.06848136 109.532997 1.06848136 105.351535 21.8689397 101.535683 21.8689397 103.990037 9.65522937 98.7340004 17.3735386 96.1095589 17.3735386 93.7513766 9.5718783 91.2803322 21.8689397 87.4644802 21.8689397"></polygon>
                    <path d="M125.120606,34.9561693 C125.102325,33.4280664 124.269371,32.4580186 122.898335,32.4580186 C121.985105,32.4580186 121.191097,32.8327016 120.555254,33.4669635 C119.820855,34.2020406 119.505318,35.1919338 118.988696,37.8496422 C118.68985,39.4142609 118.551554,40.3279474 118.551554,40.9812611 C118.551554,42.6062101 119.76204,43.2420597 120.853305,43.2420597 C122.204471,43.2420597 123.831434,42.2505788 124.269371,39.9119859 L124.447407,39.0197325 L121.568628,39.0197325 L121.88496,37.3146078 L126.788898,37.3146078 L126.391497,39.4356941 C126.053705,41.2789435 125.539467,42.4490338 124.524503,43.4595663 C123.592198,44.3930983 122.244211,45.0249788 120.715009,45.0249788 C118.174022,45.0249788 116.508114,43.3611326 116.508114,41.1193857 C116.508114,40.3668446 116.64641,39.4142609 116.943666,37.8496422 C117.599379,34.4806713 117.936376,33.4098085 119.068971,32.2794092 C120.060091,31.2871345 121.470868,30.6727181 122.95715,30.6727181 C125.837519,30.6727181 127.14497,32.6350404 127.16643,34.9561693 L125.120606,34.9561693 Z" id="Fill-26"></path>
                    <path d="M134.234062,36.612633 C134.075896,36.5475397 133.742874,36.4610134 133.405877,36.4610134 C132.212877,36.4610134 131.36959,37.4318549 131.095383,38.801194 L129.89364,44.7881824 L127.966241,44.7881824 L129.938149,34.9773643 L131.799579,34.9773643 L131.588161,35.9664637 C132.181879,35.2139226 133.026756,34.7368369 134.138686,34.7368369 C134.357257,34.7368369 134.499527,34.7566824 134.606825,34.7701774 L134.234062,36.612633 Z" id="Fill-28"></path>
                    <path d="M160.966248,39.8709454 C160.589511,41.8150099 159.994203,43.3224736 158.26789,43.3224736 C157.037534,43.3224736 156.778428,42.4492719 156.778428,41.5975033 C156.778428,41.1196239 156.896854,40.4258254 156.996999,39.8709454 C157.373736,37.9276747 157.949968,36.4432318 159.676282,36.4432318 C160.907433,36.4432318 161.184024,37.3140521 161.184024,38.1689959 C161.184024,38.6421125 161.065599,39.3168593 160.966248,39.8709454 M160.35107,34.7373132 C159.417971,34.7373132 158.503947,34.9945108 157.711527,35.9264552 L157.922945,34.9778406 L156.056746,34.9778406 L153.246321,48.9712948 L155.17213,48.9712948 L156.213323,43.7813014 C156.733124,44.7203902 157.685299,45.0252169 158.605681,45.0252169 C159.576931,45.0252169 160.448831,44.7680193 161.223764,43.9956327 C162.078973,43.1414827 162.514525,41.7745251 162.891262,39.8709454 C163.110628,38.7810309 163.149574,38.2253571 163.149574,37.6895288 C163.149574,36.2042921 162.494655,34.7373132 160.35107,34.7373132" id="Fill-30"></path>
                    <path d="M153.482218,34.9776818 L151.511105,44.7884999 L149.658418,44.7884999 L149.834865,43.8573493 C149.179152,44.5908388 148.207902,45.0250582 147.017286,45.0250582 C145.665325,45.0250582 144.361847,44.1335986 144.361847,42.2109672 C144.361847,41.8148512 144.419073,41.476684 144.481862,41.1607437 L145.72573,34.9776818 L147.64995,34.9776818 L146.437079,41.0234129 C146.383827,41.2798167 146.336934,41.5759114 146.336934,41.8148512 C146.336934,42.8452292 147.035566,43.3207272 147.85024,43.3207272 C148.544104,43.3207272 149.946932,42.9857353 150.349103,40.9813405 L151.555614,34.9776818 L153.482218,34.9776818 Z" id="Fill-32"></path>
                    <path d="M140.7838,39.8709454 C140.505619,41.3204603 140.152726,42.1476204 139.596364,42.6850364 C139.198167,43.0803586 138.635446,43.3534326 138.040933,43.3534326 C137.188109,43.3534326 136.460863,42.8223672 136.460863,41.5713073 C136.459274,41.255367 136.497424,40.7036623 136.654796,39.8709454 C136.931387,38.4269873 137.287459,37.6172912 137.843822,37.0830505 C138.242018,36.6861407 138.804739,36.4130667 139.398458,36.4130667 C140.253666,36.4130667 140.980912,36.9433383 140.983296,38.1936043 C140.983296,38.507957 140.943556,39.04061 140.7838,39.8709454 M139.575699,34.7079419 C138.443898,34.7079419 137.38363,35.099295 136.593596,35.8518361 C135.739182,36.6440682 135.145463,37.7316013 134.750446,39.8709454 C134.670171,40.3289794 134.55254,41.0966031 134.55254,41.7110196 C134.555719,44.3091915 136.512526,45.0569697 137.863692,45.0569697 C138.994697,45.0569697 140.07563,44.6656166 140.867255,43.9122817 C141.720079,43.1192558 142.316182,42.0158463 142.710404,39.8709454 C142.78909,39.4168805 142.887645,38.6683085 142.887645,38.0515106 C142.884466,35.4565139 140.926865,34.7079419 139.575699,34.7079419" id="Fill-34"></path>
                </g>
                <g id="Group-88" transform="translate(126.000000, 4.000000)">
                    <path d="M243.449615,33.9995372 C243.161896,33.7121744 242.948888,33.6161222 242.543538,33.6161222 C241.776553,33.6161222 241.285364,34.2226005 241.285364,35.0211832 L241.285364,38.2369469 L240.518379,38.2369469 L240.518379,32.9985305 L241.285364,32.9985305 L241.285364,33.6375554 C241.573878,33.2009545 242.148521,32.9342311 242.756546,32.9342311 C243.258067,32.9342311 243.641162,33.0517164 244.01472,33.4240179 L243.449615,33.9995372 L243.449615,33.9995372 Z" id="Fill-38" fill="#FFFFFF"></path>
                    <path d="M247.886208,35.8196864 L246.415027,35.8196864 C245.625787,35.8196864 245.242691,36.138802 245.242691,36.7460741 C245.242691,37.3533462 245.616249,37.6407089 246.446819,37.6407089 C246.895088,37.6407089 247.289311,37.6089561 247.619949,37.2898406 C247.801164,37.1191693 247.886208,36.8206931 247.886208,36.3840923 L247.886208,35.8196864 Z M247.886208,38.2368675 L247.886208,37.7359673 C247.460194,38.1622485 247.075509,38.3003731 246.372902,38.3003731 C245.648041,38.3003731 245.220437,38.1622485 244.890593,37.820906 C244.634667,37.5660898 244.495576,37.1723553 244.495576,36.7571875 C244.495576,35.8411196 245.136188,35.244961 246.308523,35.244961 L247.886208,35.244961 L247.886208,34.7448545 C247.886208,33.9780247 247.503113,33.5946097 246.54299,33.5946097 C245.871381,33.5946097 245.53041,33.7541675 245.220437,34.1907683 L244.698251,33.7120951 C245.16798,33.104823 245.700498,32.9341517 246.553323,32.9341517 C247.96092,32.9341517 248.653989,33.5414238 248.653989,34.6805551 L248.653989,38.2368675 L247.886208,38.2368675 Z" id="Fill-40" fill="#FFFFFF"></path>
                    <path d="M253.837141,38.2368675 L253.837141,37.6518224 C253.464378,38.0773097 252.942192,38.3003731 252.355627,38.3003731 C251.790522,38.3003731 251.321588,38.1304957 251.002077,37.8113801 C250.628519,37.4493983 250.468764,36.9484981 250.468764,36.341226 L250.468764,32.9984511 L251.236544,32.9984511 L251.236544,36.2245345 C251.236544,37.1509221 251.726938,37.6192758 252.515383,37.6192758 C253.304623,37.6192758 253.826809,37.1398086 253.826809,36.2245345 L253.826809,32.9984511 L254.594589,32.9984511 L254.594589,38.2368675 L253.837141,38.2368675 Z" id="Fill-42" fill="#FFFFFF"></path>
                    <path d="M258.168265,38.3003731 C257.283648,38.3003731 256.590579,38.0979491 256.015142,37.5446567 L256.526995,37.0334368 C256.941883,37.4700377 257.506988,37.6407089 258.157137,37.6407089 C259.021089,37.6407089 259.553607,37.331913 259.553607,36.7143213 C259.553607,36.2562873 259.287348,36.0014712 258.680118,35.9474914 L257.816961,35.8728724 C256.793254,35.7879336 256.249609,35.3306935 256.249609,34.4678114 C256.249609,33.509671 257.059514,32.9341517 258.179392,32.9341517 C258.924918,32.9341517 259.596527,33.1159364 260.066256,33.4985575 L259.564734,33.9994578 C259.191177,33.7120951 258.71191,33.5842901 258.168265,33.5842901 C257.400484,33.5842901 256.995134,33.9145191 256.995134,34.4471721 C256.995134,34.8932988 257.251856,35.1600222 257.912338,35.2124143 L258.754035,35.2878272 C259.671238,35.3727659 260.300723,35.7244281 260.300723,36.7032078 C260.300723,37.715328 259.436771,38.3003731 258.168265,38.3003731" id="Fill-44" fill="#FFFFFF"></path>
                    <path d="M263.41516,38.3003731 C262.530544,38.3003731 261.837475,38.0979491 261.262038,37.5446567 L261.773891,37.0334368 C262.188779,37.4700377 262.753884,37.6407089 263.404033,37.6407089 C264.267985,37.6407089 264.800503,37.331913 264.800503,36.7143213 C264.800503,36.2562873 264.534244,36.0014712 263.927014,35.9474914 L263.063857,35.8728724 C262.04015,35.7879336 261.496505,35.3306935 261.496505,34.4678114 C261.496505,33.509671 262.306409,32.9341517 263.426288,32.9341517 C264.171814,32.9341517 264.843423,33.1159364 265.313151,33.4985575 L264.81163,33.9994578 C264.438073,33.7120951 263.958806,33.5842901 263.41516,33.5842901 C262.64738,33.5842901 262.24203,33.9145191 262.24203,34.4471721 C262.24203,34.8932988 262.498752,35.1600222 263.159234,35.2124143 L264.000931,35.2878272 C264.918134,35.3727659 265.547619,35.7244281 265.547619,36.7032078 C265.547619,37.715328 264.683667,38.3003731 263.41516,38.3003731" id="Fill-46" fill="#FFFFFF"></path>
                    <polygon id="Fill-48" fill="#FFFFFF" points="272.883735 38.2368675 272.883735 32.4769116 270.805324 37.0445503 270.112255 37.0445503 268.000462 32.4769116 268.000462 38.2368675 267.191352 38.2368675 267.191352 30.6558891 268.000462 30.6558891 270.474686 36.0332239 272.883735 30.6558891 273.694435 30.6558891 273.694435 38.2368675"></polygon>
                    <path d="M278.729118,35.8196864 L277.257937,35.8196864 C276.468697,35.8196864 276.085602,36.138802 276.085602,36.7460741 C276.085602,37.3533462 276.459159,37.6407089 277.289729,37.6407089 C277.737998,37.6407089 278.132221,37.6089561 278.462859,37.2898406 C278.644074,37.1191693 278.729118,36.8206931 278.729118,36.3840923 L278.729118,35.8196864 Z M278.729118,38.2368675 L278.729118,37.7359673 C278.303104,38.1622485 277.918419,38.3003731 277.215812,38.3003731 C276.490951,38.3003731 276.063347,38.1622485 275.733504,37.820906 C275.477577,37.5660898 275.338486,37.1723553 275.338486,36.7571875 C275.338486,35.8411196 275.979098,35.244961 277.151433,35.244961 L278.729118,35.244961 L278.729118,34.7448545 C278.729118,33.9780247 278.346023,33.5946097 277.3859,33.5946097 C276.714291,33.5946097 276.37332,33.7541675 276.063347,34.1907683 L275.541161,33.7120951 C276.01089,33.104823 276.543408,32.9341517 277.396233,32.9341517 C278.80383,32.9341517 279.496899,33.5414238 279.496899,34.6805551 L279.496899,38.2368675 L278.729118,38.2368675 Z" id="Fill-50" fill="#FFFFFF"></path>
                    <path d="M282.30343,33.6158047 L282.30343,38.2366294 L281.535649,38.2366294 L281.535649,33.6158047 L280.86404,33.6158047 L280.86404,33.0307596 L281.535649,33.0307596 L281.535649,32.0408664 C281.535649,31.262923 281.972791,30.6350116 282.868535,30.6350116 L283.422513,30.6350116 L283.422513,31.2946758 L283.006831,31.2946758 C282.516437,31.2946758 282.30343,31.5820386 282.30343,32.0615057 L282.30343,33.0307596 L283.422513,33.0307596 L283.422513,33.6158047 L282.30343,33.6158047 Z" id="Fill-52" fill="#FFFFFF"></path>
                    <path d="M285.651858,33.6158047 L285.651858,38.2366294 L284.884077,38.2366294 L284.884077,33.6158047 L284.212468,33.6158047 L284.212468,33.0307596 L284.884077,33.0307596 L284.884077,32.0408664 C284.884077,31.262923 285.321219,30.6350116 286.216963,30.6350116 L286.770941,30.6350116 L286.770941,31.2946758 L286.355259,31.2946758 C285.864865,31.2946758 285.651858,31.5820386 285.651858,32.0615057 L285.651858,33.0307596 L286.770941,33.0307596 L286.770941,33.6158047 L285.651858,33.6158047 Z" id="Fill-54" fill="#FFFFFF"></path>
                    <path d="M291.004304,34.3716005 C290.801629,33.8921334 290.332695,33.5841313 289.778716,33.5841313 C289.223944,33.5841313 288.755009,33.8921334 288.552334,34.3716005 C288.435498,34.6589632 288.414039,34.818521 288.392579,35.245596 L291.164059,35.245596 C291.143394,34.818521 291.12114,34.6589632 291.004304,34.3716005 L291.004304,34.3716005 Z M288.392579,35.8195277 C288.392579,36.9697725 288.936225,37.6294367 289.938472,37.6294367 C290.545702,37.6294367 290.8978,37.4492396 291.313482,37.0340719 L291.835668,37.4921058 C291.30315,38.0239651 290.812756,38.3002143 289.917012,38.3002143 C288.53167,38.3002143 287.624799,37.4698789 287.624799,35.6171036 C287.624799,33.9254738 288.445831,32.933993 289.778716,32.933993 C291.132267,32.933993 291.931839,33.9143603 291.931839,35.4686594 L291.931839,35.8195277 L288.392579,35.8195277 Z" id="Fill-56" fill="#FFFFFF"></path>
                    <mask id="mask-2" fill="white">
                        <use xlink:href="#path-1"></use>
                    </mask>
                    <g id="Clip-59"></g>
                    <path d="M293.565479,38.2375026 L294.333259,38.2375026 L294.333259,32.9990862 L293.565479,32.9990862 L293.565479,38.2375026 Z M293.523354,31.5082927 L294.387306,31.5082927 L294.387306,30.6454107 L293.523354,30.6454107 L293.523354,31.5082927 Z" id="Fill-58" fill="#FFFFFF" mask="url(#mask-2)"></path>
                    <polygon id="Fill-60" fill="#FFFFFF" mask="url(#mask-2)" points="238.4472 53.055021 236.134322 49.0200353 234.534382 50.9363162 234.534382 53.055021 233.725272 53.055021 233.725272 45.4740426 234.534382 45.4740426 234.534382 49.8289376 238.073642 45.4740426 239.065557 45.4740426 236.677173 48.4024436 239.406528 53.055021"></polygon>
                    <path d="M243.449615,48.8177701 C243.161896,48.5304073 242.948888,48.4343551 242.543538,48.4343551 C241.776553,48.4343551 241.285364,49.0408334 241.285364,49.8394161 L241.285364,53.0551798 L240.518379,53.0551798 L240.518379,47.8167634 L241.285364,47.8167634 L241.285364,48.4557883 C241.573878,48.0191874 242.148521,47.752464 242.756546,47.752464 C243.258067,47.752464 243.641162,47.8699493 244.01472,48.2422508 L243.449615,48.8177701 Z" id="Fill-61" fill="#FFFFFF" mask="url(#mask-2)"></path>
                    <path d="M247.886208,50.6379193 L246.415027,50.6379193 C245.625787,50.6379193 245.242691,50.9570349 245.242691,51.564307 C245.242691,52.1715791 245.616249,52.4589418 246.446819,52.4589418 C246.895088,52.4589418 247.289311,52.427189 247.619949,52.1080735 C247.801164,51.9374022 247.886208,51.638926 247.886208,51.2023252 L247.886208,50.6379193 Z M247.886208,53.0551004 L247.886208,52.5542002 C247.460194,52.9804814 247.075509,53.118606 246.372902,53.118606 C245.648041,53.118606 245.220437,52.9804814 244.890593,52.6391389 C244.634667,52.3843227 244.495576,51.9905882 244.495576,51.5754204 C244.495576,50.6593525 245.136188,50.0631938 246.308523,50.0631938 L247.886208,50.0631938 L247.886208,49.5630874 C247.886208,48.7962576 247.503113,48.4128426 246.54299,48.4128426 C245.871381,48.4128426 245.53041,48.5724004 245.220437,49.0090012 L244.698251,48.530328 C245.16798,47.9230559 245.700498,47.7523846 246.553323,47.7523846 C247.96092,47.7523846 248.653989,48.3596567 248.653989,49.498788 L248.653989,53.0551004 L247.886208,53.0551004 Z" id="Fill-62" fill="#FFFFFF" mask="url(#mask-2)"></path>
                    <path d="M253.837141,53.055021 L253.837141,52.4699759 C253.464378,52.8954633 252.942192,53.1185266 252.355627,53.1185266 C251.790522,53.1185266 251.321588,52.9486492 251.002077,52.6295337 C250.628519,52.2675519 250.468764,51.7666516 250.468764,51.1593795 L250.468764,47.8166046 L251.236544,47.8166046 L251.236544,51.042688 C251.236544,51.9690756 251.726938,52.4374293 252.515383,52.4374293 C253.304623,52.4374293 253.826809,51.9579622 253.826809,51.042688 L253.826809,47.8166046 L254.594589,47.8166046 L254.594589,53.055021 L253.837141,53.055021 Z" id="Fill-63" fill="#FFFFFF" mask="url(#mask-2)"></path>
                    <path d="M258.168265,53.118606 C257.283648,53.118606 256.590579,52.916182 256.015142,52.3628896 L256.526995,51.8516697 C256.941883,52.2882706 257.506988,52.4589418 258.157137,52.4589418 C259.021089,52.4589418 259.553607,52.1501459 259.553607,51.5325542 C259.553607,51.0745202 259.287348,50.8197041 258.680118,50.7657243 L257.816961,50.6911053 C256.793254,50.6061665 256.249609,50.1489264 256.249609,49.2860443 C256.249609,48.3279039 257.059514,47.7523846 258.179392,47.7523846 C258.924918,47.7523846 259.596527,47.9341693 260.066256,48.3167904 L259.564734,48.8176907 C259.191177,48.530328 258.71191,48.402523 258.168265,48.402523 C257.400484,48.402523 256.995134,48.732752 256.995134,49.265405 C256.995134,49.7115317 257.251856,49.9782551 257.912338,50.0306472 L258.754035,50.1060601 C259.671238,50.1909988 260.300723,50.542661 260.300723,51.5214407 C260.300723,52.5335608 259.436771,53.118606 258.168265,53.118606" id="Fill-64" fill="#FFFFFF" mask="url(#mask-2)"></path>
                    <path d="M263.41516,53.118606 C262.530544,53.118606 261.837475,52.916182 261.262038,52.3628896 L261.773891,51.8516697 C262.188779,52.2882706 262.753884,52.4589418 263.404033,52.4589418 C264.267985,52.4589418 264.800503,52.1501459 264.800503,51.5325542 C264.800503,51.0745202 264.534244,50.8197041 263.927014,50.7657243 L263.063857,50.6911053 C262.04015,50.6061665 261.496505,50.1489264 261.496505,49.2860443 C261.496505,48.3279039 262.306409,47.7523846 263.426288,47.7523846 C264.171814,47.7523846 264.843423,47.9341693 265.313151,48.3167904 L264.81163,48.8176907 C264.438073,48.530328 263.958806,48.402523 263.41516,48.402523 C262.64738,48.402523 262.24203,48.732752 262.24203,49.265405 C262.24203,49.7115317 262.498752,49.9782551 263.159234,50.0306472 L264.000931,50.1060601 C264.918134,50.1909988 265.547619,50.542661 265.547619,51.5214407 C265.547619,52.5335608 264.683667,53.118606 263.41516,53.118606" id="Fill-65" fill="#FFFFFF" mask="url(#mask-2)"></path>
                    <polygon id="Fill-66" fill="#FFFFFF" mask="url(#mask-2)" points="272.883735 53.055021 272.883735 47.2950651 270.805324 51.8627038 270.112255 51.8627038 268.000462 47.2950651 268.000462 53.055021 267.191352 53.055021 267.191352 45.4740426 268.000462 45.4740426 270.474686 50.8513775 272.883735 45.4740426 273.694435 45.4740426 273.694435 53.055021"></polygon>
                    <path d="M278.729118,50.6379193 L277.257937,50.6379193 C276.468697,50.6379193 276.085602,50.9570349 276.085602,51.564307 C276.085602,52.1715791 276.459159,52.4589418 277.289729,52.4589418 C277.737998,52.4589418 278.132221,52.427189 278.462859,52.1080735 C278.644074,51.9374022 278.729118,51.638926 278.729118,51.2023252 L278.729118,50.6379193 Z M278.729118,53.0551004 L278.729118,52.5542002 C278.303104,52.9804814 277.918419,53.118606 277.215812,53.118606 C276.490951,53.118606 276.063347,52.9804814 275.733504,52.6391389 C275.477577,52.3843227 275.338486,51.9905882 275.338486,51.5754204 C275.338486,50.6593525 275.979098,50.0631938 277.151433,50.0631938 L278.729118,50.0631938 L278.729118,49.5630874 C278.729118,48.7962576 278.346023,48.4128426 277.3859,48.4128426 C276.714291,48.4128426 276.37332,48.5724004 276.063347,49.0090012 L275.541161,48.530328 C276.01089,47.9230559 276.543408,47.7523846 277.396233,47.7523846 C278.80383,47.7523846 279.496899,48.3596567 279.496899,49.498788 L279.496899,53.0551004 L278.729118,53.0551004 Z" id="Fill-67" fill="#FFFFFF" mask="url(#mask-2)"></path>
                    <path d="M282.30343,48.4340376 L282.30343,53.0548623 L281.535649,53.0548623 L281.535649,48.4340376 L280.86404,48.4340376 L280.86404,47.8489925 L281.535649,47.8489925 L281.535649,46.8590993 C281.535649,46.0811559 281.972791,45.4532445 282.868535,45.4532445 L283.422513,45.4532445 L283.422513,46.1129087 L283.006831,46.1129087 C282.516437,46.1129087 282.30343,46.4002715 282.30343,46.8797386 L282.30343,47.8489925 L283.422513,47.8489925 L283.422513,48.4340376 L282.30343,48.4340376 Z" id="Fill-68" fill="#FFFFFF" mask="url(#mask-2)"></path>
                    <path d="M285.651858,48.4340376 L285.651858,53.0548623 L284.884077,53.0548623 L284.884077,48.4340376 L284.212468,48.4340376 L284.212468,47.8489925 L284.884077,47.8489925 L284.884077,46.8590993 C284.884077,46.0811559 285.321219,45.4532445 286.216963,45.4532445 L286.770941,45.4532445 L286.770941,46.1129087 L286.355259,46.1129087 C285.864865,46.1129087 285.651858,46.4002715 285.651858,46.8797386 L285.651858,47.8489925 L286.770941,47.8489925 L286.770941,48.4340376 L285.651858,48.4340376 Z" id="Fill-69" fill="#FFFFFF" mask="url(#mask-2)"></path>
                    <path d="M291.004304,49.1898334 C290.801629,48.7103663 290.332695,48.4023642 289.778716,48.4023642 C289.223944,48.4023642 288.755009,48.7103663 288.552334,49.1898334 C288.435498,49.4771961 288.414039,49.6367539 288.392579,50.0638289 L291.164059,50.0638289 C291.143394,49.6367539 291.12114,49.4771961 291.004304,49.1898334 L291.004304,49.1898334 Z M288.392579,50.6377606 C288.392579,51.7880054 288.936225,52.4476696 289.938472,52.4476696 C290.545702,52.4476696 290.8978,52.2674725 291.313482,51.8523048 L291.835668,52.3103387 C291.30315,52.842198 290.812756,53.1184472 289.917012,53.1184472 C288.53167,53.1184472 287.624799,52.2881118 287.624799,50.4353365 C287.624799,48.7437067 288.445831,47.7522259 289.778716,47.7522259 C291.132267,47.7522259 291.931839,48.7325932 291.931839,50.2868922 L291.931839,50.6377606 L288.392579,50.6377606 Z" id="Fill-70" fill="#FFFFFF" mask="url(#mask-2)"></path>
                    <path d="M293.565479,53.0557355 L294.333259,53.0557355 L294.333259,47.8173191 L293.565479,47.8173191 L293.565479,53.0557355 Z M293.523354,46.3265256 L294.387306,46.3265256 L294.387306,45.4636436 L293.523354,45.4636436 L293.523354,46.3265256 Z" id="Fill-71" fill="#FFFFFF" mask="url(#mask-2)"></path>
                    <path d="M301.935953,49.5518946 L299.867079,49.5518946 L299.867079,52.3310574 L301.935953,52.3310574 C302.874616,52.3310574 303.460386,51.7880847 303.460386,50.9363162 C303.460386,50.0845476 302.874616,49.5518946 301.935953,49.5518946 M301.850909,46.1980062 L299.867079,46.1980062 L299.867079,48.827931 L301.850909,48.827931 C302.692606,48.827931 303.34355,48.4127632 303.34355,47.5078088 C303.34355,46.6028543 302.692606,46.1980062 301.850909,46.1980062 M302.010664,53.055021 L299.057969,53.055021 L299.057969,45.4740426 L301.914493,45.4740426 C303.237046,45.4740426 304.153455,46.229759 304.153455,47.4974891 C304.153455,48.2960717 303.674188,48.9239832 303.034371,49.15816 C303.758437,49.4248834 304.271086,50.0527948 304.271086,50.9577493 C304.271086,52.3310574 303.353882,53.055021 302.010664,53.055021" id="Fill-72" fill="#FFFFFF" mask="url(#mask-2)"></path>
                    <path d="M309.135045,49.1898334 C308.93237,48.7103663 308.463436,48.4023642 307.909458,48.4023642 C307.354685,48.4023642 306.885751,48.7103663 306.683076,49.1898334 C306.56624,49.4771961 306.54478,49.6367539 306.523321,50.0638289 L309.294801,50.0638289 C309.274136,49.6367539 309.251882,49.4771961 309.135045,49.1898334 L309.135045,49.1898334 Z M306.523321,50.6377606 C306.523321,51.7880054 307.066966,52.4476696 308.069214,52.4476696 C308.676444,52.4476696 309.028542,52.2674725 309.444224,51.8523048 L309.96641,52.3103387 C309.433892,52.842198 308.943498,53.1184472 308.047754,53.1184472 C306.662411,53.1184472 305.755541,52.2881118 305.755541,50.4353365 C305.755541,48.7437067 306.576573,47.7522259 307.909458,47.7522259 C309.263009,47.7522259 310.062581,48.7325932 310.062581,50.2868922 L310.062581,50.6377606 L306.523321,50.6377606 Z" id="Fill-73" fill="#FFFFFF" mask="url(#mask-2)"></path>
                    <path d="M314.627218,48.8177701 C314.339499,48.5304073 314.126492,48.4343551 313.721142,48.4343551 C312.954156,48.4343551 312.462968,49.0408334 312.462968,49.8394161 L312.462968,53.0551798 L311.695982,53.0551798 L311.695982,47.8167634 L312.462968,47.8167634 L312.462968,48.4557883 C312.751481,48.0191874 313.326124,47.752464 313.934149,47.752464 C314.43567,47.752464 314.818765,47.8699493 315.192323,48.2422508 L314.627218,48.8177701 Z" id="Fill-74" fill="#FFFFFF" mask="url(#mask-2)"></path>
                    <path d="M317.742053,53.118606 C316.857437,53.118606 316.164368,52.916182 315.58893,52.3628896 L316.100784,51.8516697 C316.515671,52.2882706 317.080776,52.4589418 317.730926,52.4589418 C318.594877,52.4589418 319.127396,52.1501459 319.127396,51.5325542 C319.127396,51.0745202 318.861137,50.8197041 318.253907,50.7657243 L317.39075,50.6911053 C316.367043,50.6061665 315.823397,50.1489264 315.823397,49.2860443 C315.823397,48.3279039 316.633302,47.7523846 317.75318,47.7523846 C318.498706,47.7523846 319.170315,47.9341693 319.640044,48.3167904 L319.138523,48.8176907 C318.764965,48.530328 318.285699,48.402523 317.742053,48.402523 C316.974273,48.402523 316.568923,48.732752 316.568923,49.265405 C316.568923,49.7115317 316.825645,49.9782551 317.486126,50.0306472 L318.327823,50.1060601 C319.245027,50.1909988 319.874511,50.542661 319.874511,51.5214407 C319.874511,52.5335608 319.01056,53.118606 317.742053,53.118606" id="Fill-75" fill="#FFFFFF" mask="url(#mask-2)"></path>
                    <path d="M322.754561,53.055021 C321.859613,53.055021 321.412138,52.4271096 321.412138,51.6491663 L321.412138,48.4341964 L320.750862,48.4341964 L320.750862,47.8483574 L321.412138,47.8483574 L321.412138,46.2091197 L322.179124,46.2091197 L322.179124,47.8483574 L323.299002,47.8483574 L323.299002,48.4341964 L322.179124,48.4341964 L322.179124,51.628527 C322.179124,52.1079941 322.403258,52.394563 322.893652,52.394563 L323.299002,52.394563 L323.299002,53.055021 L322.754561,53.055021 Z" id="Fill-76" fill="#FFFFFF" mask="url(#mask-2)"></path>
                    <path d="M327.607235,48.8177701 C327.361641,48.5724798 327.02067,48.4343551 326.647907,48.4343551 C326.274349,48.4343551 325.943711,48.5724798 325.698911,48.8177701 C325.315021,49.2003912 325.272102,49.8505295 325.272102,50.4355747 C325.272102,51.0214136 325.315021,51.671552 325.698911,52.0541731 C325.943711,52.2994634 326.274349,52.437588 326.647907,52.437588 C327.02067,52.437588 327.361641,52.2994634 327.607235,52.0541731 C327.99033,51.671552 328.022122,51.0214136 328.022122,50.4355747 C328.022122,49.8505295 327.99033,49.2003912 327.607235,48.8177701 M328.150881,52.5225268 C327.78845,52.8845086 327.287724,53.1186854 326.647907,53.1186854 C326.00809,53.1186854 325.506569,52.8845086 325.144139,52.5225268 C324.610825,51.9795541 324.505116,51.2452708 324.505116,50.4355747 C324.505116,49.6274662 324.610825,48.8923891 325.144139,48.3486226 C325.506569,47.9866408 326.00809,47.752464 326.647907,47.752464 C327.287724,47.752464 327.78845,47.9866408 328.150881,48.3486226 C328.683399,48.8923891 328.789903,49.6274662 328.789903,50.4355747 C328.789903,51.2452708 328.683399,51.9795541 328.150881,52.5225268" id="Fill-77" fill="#FFFFFF" mask="url(#mask-2)"></path>
                    <path d="M333.365666,48.8177701 C333.077948,48.5304073 332.86494,48.4343551 332.45959,48.4343551 C331.692605,48.4343551 331.201416,49.0408334 331.201416,49.8394161 L331.201416,53.0551798 L330.434431,53.0551798 L330.434431,47.8167634 L331.201416,47.8167634 L331.201416,48.4557883 C331.48993,48.0191874 332.064573,47.752464 332.672598,47.752464 C333.174119,47.752464 333.557214,47.8699493 333.930772,48.2422508 L333.365666,48.8177701 Z" id="Fill-78" fill="#FFFFFF" mask="url(#mask-2)"></path>
                    <path d="M335.862621,48.4340376 L335.862621,53.0548623 L335.094841,53.0548623 L335.094841,48.4340376 L334.423232,48.4340376 L334.423232,47.8489925 L335.094841,47.8489925 L335.094841,46.8590993 C335.094841,46.0811559 335.531983,45.4532445 336.427727,45.4532445 L336.981705,45.4532445 L336.981705,46.1129087 L336.566023,46.1129087 C336.075629,46.1129087 335.862621,46.4002715 335.862621,46.8797386 L335.862621,47.8489925 L336.981705,47.8489925 L336.981705,48.4340376 L335.862621,48.4340376 Z" id="Fill-79" fill="#FFFFFF" mask="url(#mask-2)"></path>
                    <path d="M339.21105,48.4340376 L339.21105,53.0548623 L338.443269,53.0548623 L338.443269,48.4340376 L337.77166,48.4340376 L337.77166,47.8489925 L338.443269,47.8489925 L338.443269,46.8590993 C338.443269,46.0811559 338.880411,45.4532445 339.776155,45.4532445 L340.330133,45.4532445 L340.330133,46.1129087 L339.914451,46.1129087 C339.424057,46.1129087 339.21105,46.4002715 339.21105,46.8797386 L339.21105,47.8489925 L340.330133,47.8489925 L340.330133,48.4340376 L339.21105,48.4340376 Z" id="Fill-80" fill="#FFFFFF" mask="url(#mask-2)"></path>
                    <polygon id="Fill-81" fill="#FFFFFF" mask="url(#mask-2)" points="238.564354 67.870158 234.5347 61.7910865 234.5347 67.870158 233.724795 67.870158 233.724795 60.2891796 234.492575 60.2891796 238.521435 66.3476118 238.521435 60.2891796 239.332135 60.2891796 239.332135 67.870158"></polygon>
                    <path d="M244.48429,64.0049704 C244.281615,63.5255033 243.812681,63.2175012 243.258703,63.2175012 C242.70393,63.2175012 242.234996,63.5255033 242.032321,64.0049704 C241.915485,64.2923331 241.894025,64.4518909 241.872565,64.8789659 L244.644045,64.8789659 C244.623381,64.4518909 244.601126,64.2923331 244.48429,64.0049704 L244.48429,64.0049704 Z M241.872565,65.4528976 C241.872565,66.6031424 242.416211,67.2628066 243.418458,67.2628066 C244.025688,67.2628066 244.377786,67.0826095 244.793468,66.6674418 L245.315654,67.1254757 C244.783136,67.657335 244.292742,67.9335842 243.396999,67.9335842 C242.011656,67.9335842 241.104785,67.1032488 241.104785,65.2504735 C241.104785,63.5588437 241.925817,62.5673629 243.258703,62.5673629 C244.612253,62.5673629 245.411826,63.5477302 245.411826,65.1020292 L245.411826,65.4528976 L241.872565,65.4528976 Z" id="Fill-82" fill="#FFFFFF" mask="url(#mask-2)"></path>
                    <path d="M248.516488,67.870158 C247.621539,67.870158 247.174064,67.2422466 247.174064,66.4643033 L247.174064,63.2493334 L246.512788,63.2493334 L246.512788,62.6634944 L247.174064,62.6634944 L247.174064,61.0242567 L247.94105,61.0242567 L247.94105,62.6634944 L249.060928,62.6634944 L249.060928,63.2493334 L247.94105,63.2493334 L247.94105,66.443664 C247.94105,66.9231311 248.165184,67.2097 248.655578,67.2097 L249.060928,67.2097 L249.060928,67.870158 L248.516488,67.870158 Z" id="Fill-83" fill="#FFFFFF" mask="url(#mask-2)"></path>
                    <path d="M252.195554,67.933743 C251.310938,67.933743 250.617869,67.731319 250.042431,67.1780266 L250.554284,66.6668067 C250.969172,67.1034076 251.534277,67.2740788 252.184427,67.2740788 C253.048378,67.2740788 253.580897,66.9652829 253.580897,66.3476912 C253.580897,65.8896572 253.314637,65.6348411 252.707407,65.5808613 L251.844251,65.5062423 C250.820544,65.4213035 250.276898,64.9640634 250.276898,64.1011813 C250.276898,63.1430409 251.086803,62.5675216 252.206681,62.5675216 C252.952207,62.5675216 253.623816,62.7493063 254.093545,63.1319274 L253.592024,63.6328277 C253.218466,63.345465 252.7392,63.21766 252.195554,63.21766 C251.427774,63.21766 251.022424,63.547889 251.022424,64.080542 C251.022424,64.5266687 251.279145,64.7933921 251.939627,64.8457842 L252.781324,64.9211971 C253.698528,65.0061358 254.328012,65.357798 254.328012,66.3365777 C254.328012,67.3486978 253.46406,67.933743 252.195554,67.933743" id="Fill-84" fill="#FFFFFF" mask="url(#mask-2)"></path>
                    <path d="M257.208142,67.870158 C256.313193,67.870158 255.865718,67.2422466 255.865718,66.4643033 L255.865718,63.2493334 L255.204442,63.2493334 L255.204442,62.6634944 L255.865718,62.6634944 L255.865718,61.0242567 L256.632704,61.0242567 L256.632704,62.6634944 L257.752582,62.6634944 L257.752582,63.2493334 L256.632704,63.2493334 L256.632704,66.443664 C256.632704,66.9231311 256.856839,67.2097 257.347232,67.2097 L257.752582,67.2097 L257.752582,67.870158 L257.208142,67.870158 Z" id="Fill-85" fill="#FFFFFF" mask="url(#mask-2)"></path>
                    <path d="M262.208967,65.4530563 L260.737785,65.4530563 C259.948545,65.4530563 259.56545,65.7721719 259.56545,66.379444 C259.56545,66.9867161 259.939007,67.2740788 260.769577,67.2740788 C261.217846,67.2740788 261.612069,67.242326 261.942707,66.9232105 C262.123923,66.7525392 262.208967,66.454063 262.208967,66.0174622 L262.208967,65.4530563 Z M262.208967,67.8702374 L262.208967,67.3693372 C261.782952,67.7956184 261.398267,67.933743 260.69566,67.933743 C259.9708,67.933743 259.543195,67.7956184 259.213352,67.4542759 C258.957425,67.1994597 258.818334,66.8057252 258.818334,66.3905574 C258.818334,65.4744895 259.458946,64.8783308 260.631281,64.8783308 L262.208967,64.8783308 L262.208967,64.3782244 C262.208967,63.6113946 261.825871,63.2279796 260.865748,63.2279796 C260.194139,63.2279796 259.853169,63.3875374 259.543195,63.8241382 L259.021009,63.345465 C259.490738,62.7381929 260.023257,62.5675216 260.876081,62.5675216 C262.283678,62.5675216 262.976747,63.1747937 262.976747,64.313925 L262.976747,67.8702374 L262.208967,67.8702374 Z" id="Fill-86" fill="#FFFFFF" mask="url(#mask-2)"></path>
                    <path d="M266.155882,67.870158 C265.239473,67.870158 264.823791,67.2739994 264.823791,66.4754168 L264.823791,60.2891796 L265.590776,60.2891796 L265.590776,66.443664 C265.590776,66.9548839 265.761659,67.2097 266.294972,67.2097 L266.710655,67.2097 L266.710655,67.870158 L266.155882,67.870158 Z" id="Fill-87" fill="#FFFFFF" mask="url(#mask-2)"></path>
                    <polygon id="Fill-37" fill="#FFFFFF" mask="url(#mask-2)" points="238.4472 39.0187799 236.134322 34.9837943 234.534382 36.9000751 234.534382 39.0187799 233.725272 39.0187799 233.725272 31.4378015 234.534382 31.4378015 234.534382 35.7926966 238.073642 31.4378015 239.065557 31.4378015 236.677173 34.3662025 239.406528 39.0187799"></polygon>
                </g>
            </g>
        </g>
    </g>
</svg>