<?xml version="1.0" encoding="UTF-8" standalone="no"?>
<svg width="750px" height="170px" viewBox="0 0 750 170" version="1.1" xmlns="http://www.w3.org/2000/svg" xmlns:xlink="http://www.w3.org/1999/xlink">
    <!-- Generator: Sketch 39.1 (31720) - http://www.bohemiancoding.com/sketch -->
    <title>KM Group_modul_smartphone</title>
    <desc>Created with Sketch.</desc>
    <defs></defs>
    <g id="Smartphone" stroke="none" stroke-width="1" fill="none" fill-rule="evenodd">
        <g id="1_Mobile_Energieberatung">
            <g id="KM-Group_modul_smartphone">
                <polygon id="Fill-1" fill="#AFAFAF" points="0 0 0 170 581.444348 170 615.610744 0"></polygon>
                <polygon id="Fill-1" fill="#AFAFAF" points="134 0 134 170 715.444348 170 749.610744 0"></polygon>
                <g id="Group-36" transform="translate(67.044844, 55.042075)" fill="#FFFFFF">
                    <path d="M39.4158528,9.40634226 C39.6523822,9.40634226 39.9543591,9.43041846 40.1334785,9.46137358 L39.0851709,14.657247 C38.4444747,14.3775044 37.7371828,14.2754672 37.161934,14.2754672 C35.0745044,14.2754672 33.2006401,15.8702289 32.6896906,18.4211596 L30.0580137,31.5851089 L24.7751403,31.5851089 L29.1095995,9.88213384 L34.2190945,9.88213384 L33.7954083,11.8323061 C35.0331691,10.3430211 37.1148578,9.40634226 39.4158528,9.40634226" id="Fill-2"></path>
                    <path d="M81.7619694,9.88259244 L77.4676972,31.584421 L72.3995375,31.584421 L72.7371086,29.6835477 C71.2938198,31.1682467 68.9618233,32.0625056 66.6654211,32.0625056 C64.067042,32.0625056 61.0047896,30.3209937 61.001345,25.8978518 C61.0036414,25.0058858 61.1299435,24.1987599 61.2573938,23.4764739 L63.9797787,9.88259244 L69.2603556,9.88259244 L66.6217894,23.1382606 C66.5379708,23.6071732 66.4518557,24.1586329 66.4518557,24.5816861 C66.4530039,26.4940243 67.7734352,27.3447168 69.0915701,27.3447168 C70.5819351,27.3447168 73.1665358,26.5823037 73.8462709,23.0969871 L76.4813925,9.88259244 L81.7619694,9.88259244 Z" id="Fill-4"></path>
                    <path d="M119.940231,10.6883426 L119.048079,15.1183635 C118.366047,14.7526346 116.299285,13.7448736 113.224402,13.7448736 C110.543353,13.7448736 109.243589,15.0610392 109.243589,16.4230643 C109.243589,17.3563037 109.927917,17.8676363 111.283943,18.0797362 L114.138371,18.5486489 C118.100813,19.1849484 119.503914,21.2256931 119.510804,24.2856635 C119.511952,26.4949415 118.569279,28.2398928 117.119101,29.6374589 C115.334796,31.3824102 112.483813,32.0622763 109.628237,32.0622763 C106.787587,32.0622763 103.599032,30.9031792 102.146558,29.9997484 L103.137456,25.0629808 C104.314362,26.0581305 107.107935,27.5600268 109.969252,27.5600268 C112.992466,27.5600268 114.266969,26.1131618 114.266969,24.7981426 C114.264673,23.6069439 113.460932,23.1804513 112.181836,22.9729373 L109.283776,22.5028782 C105.239812,21.8207192 103.963012,19.5701677 103.963012,17.4858566 C103.960716,15.445112 104.733455,13.4456408 106.220376,11.9586488 C107.880674,10.3008304 110.431977,9.40657156 113.586086,9.40657156 C115.882488,9.40657156 118.470533,9.95573823 119.940231,10.6883426" id="Fill-6"></path>
                    <path d="M232.701848,0.746362217 C230.960027,0.746362217 229.482292,2.15883265 229.415696,3.90034449 C229.346804,5.64070985 230.709719,7.05891271 232.452688,7.05891271 C234.20025,7.05891271 235.669948,5.64070985 235.737692,3.90034449 C235.806584,2.15883265 234.443669,0.746362217 232.701848,0.746362217" id="Fill-8"></path>
                    <path d="M214.736289,13.6807851 C216.652637,13.6807851 217.863989,15.0221734 217.863989,17.3162913 C217.863989,17.7347586 217.835284,18.2220151 217.765244,18.6553867 L209.642869,18.6553867 C210.637211,15.1929997 212.511076,13.6807851 214.736289,13.6807851 L214.736289,13.6807851 Z M222.18467,22.4926745 C222.565873,20.7511626 222.889666,18.8021369 222.890814,17.3162913 C222.889666,12.5113696 219.756225,9.34133652 215.038266,9.34133652 C207.411915,9.34133652 203.729634,16.8462322 203.734226,24.2857782 C203.729634,30.1087792 208.037684,32.1243012 212.35492,32.1243012 C215.676666,32.1243012 218.139558,31.4811227 219.920418,30.7221491 L220.891796,25.8816863 C219.890564,26.4457573 217.349595,27.6656181 213.167847,27.6656181 C209.913845,27.6656181 208.758754,26.0731494 208.756458,23.9028519 C208.754162,23.4052771 208.82535,22.9971282 208.903428,22.4880885 L222.18467,22.4926745 Z" id="Fill-10"></path>
                    <polygon id="Fill-12" points="233.980829 10.0962974 229.661297 31.5848796 224.377275 31.5848796 228.695659 10.0962974"></polygon>
                    <path d="M169.300134,23.6067147 C169.091161,24.7096339 168.668623,25.7300062 167.983147,26.4110188 C167.173666,27.2181447 165.986426,27.7707509 164.536248,27.7707509 C162.582009,27.7707509 161.486625,26.4809544 161.486625,25.2507752 C161.486625,23.2845522 162.956323,21.7333569 165.400843,21.7333569 L169.676744,21.7333569 L169.300134,23.6067147 Z M168.150785,9.40634226 C164.74522,9.40634226 162.257068,9.9578019 161.442994,10.2329585 L160.484246,15.0023392 C161.836827,14.4325358 164.386981,13.8271913 167.212704,13.8271913 C169.571109,13.8271913 170.684865,14.7203037 170.684865,16.2072957 C170.687161,16.6337884 170.632047,16.9731482 170.555118,17.3549279 L170.418482,18.0370869 L164.907117,18.0370869 C160.217863,18.0370869 156.291015,21.1761649 156.291015,26.1989189 C156.297905,29.5569756 159.003066,32.0207735 162.875949,32.0207735 C165.302098,32.0207735 167.002584,31.0886806 168.240344,29.8516225 L167.900477,31.5851089 L172.96634,31.5851089 L175.796656,17.5257543 C175.913772,16.9318747 176.00448,16.1671687 176.00448,15.5698496 C176.00448,10.8497678 171.851437,9.40634226 168.150785,9.40634226 L168.150785,9.40634226 Z" id="Fill-14"></path>
                    <path d="M100.512553,10.6883426 L99.6226972,15.1183635 C98.9418139,14.7526346 96.8762001,13.7448736 93.8001693,13.7448736 C91.1191197,13.7448736 89.8159114,15.0610392 89.8159114,16.4230643 C89.8159114,17.3563037 90.5013874,17.8676363 91.857413,18.0797362 L94.7129892,18.5486489 C98.674283,19.1849484 100.078533,21.2256931 100.083126,24.2856635 C100.08657,26.4949415 99.1438973,28.2398928 97.6960157,29.6374589 C95.9082665,31.3824102 93.0584313,32.0622763 90.2028552,32.0622763 C87.3622056,32.0622763 84.1747993,30.9031792 82.7234731,29.9997484 L83.7132224,25.0629808 C84.8889804,26.0581305 87.6837019,27.5600268 90.5461673,27.5600268 C93.5682326,27.5600268 94.8427359,26.1131618 94.8404395,24.7981426 C94.8392913,23.6069439 94.0344023,23.1804513 92.7587509,22.9729373 L89.8606912,22.5028782 C85.8167269,21.8207192 84.5364826,19.5701677 84.5364826,17.4858566 C84.5341862,15.445112 85.3080738,13.4456408 86.7972906,11.9586488 C88.4564413,10.3008304 91.0077441,9.40657156 94.158408,9.40657156 C96.4571067,9.40657156 99.0440038,9.95573823 100.512553,10.6883426" id="Fill-16"></path>
                    <path d="M180.307938,10.3429065 L182.800683,10.3429065 L183.346078,7.62114931 C184.124559,3.75634588 186.493298,1.5436284 190.582042,1.5436284 L193.672999,1.5436284 L192.776254,6.00689739 L190.952911,6.00689739 C189.674963,6.00689739 188.820701,6.68790992 188.521021,8.17490193 L188.085853,10.3429065 L195.293111,10.3429065 L195.841951,7.62114931 C196.616987,3.75634588 198.986874,1.5436284 203.077915,1.5436284 L206.17002,1.5436284 L205.273275,6.00689739 L203.445339,6.00689739 C202.168539,6.00689739 201.315426,6.68790992 201.016894,8.17490193 L200.581725,10.3429065 L204.494795,10.3429065 L203.681868,14.3785363 L199.768799,14.3785363 L196.310417,31.5849943 L191.025247,31.5849943 L194.483629,14.3785363 L187.272926,14.3785363 L183.814544,31.5849943 L178.530523,31.5849943 L181.987756,14.3785363 L179.49616,14.3785363 L180.307938,10.3429065 Z" id="Fill-18"></path>
                    <path d="M51.346581,23.6067147 C51.1387566,24.7096339 50.7150704,25.7300062 50.0295943,26.4110188 C49.2235571,27.2181447 48.0328726,27.7707509 46.5838428,27.7707509 C44.6296045,27.7707509 43.5353688,26.4809544 43.5353688,25.2507752 C43.5353688,23.2845522 45.003918,21.7333569 47.44729,21.7333569 L51.723191,21.7333569 L51.346581,23.6067147 Z M50.1960835,9.40634226 C46.7893708,9.40634226 44.3046635,9.9578019 43.4905889,10.2329585 L42.5295446,15.0023392 C43.8832737,14.4325358 46.4334284,13.8271913 49.2591514,13.8271913 C51.6198529,13.8271913 52.7324598,14.7203037 52.7313116,16.2072957 C52.733608,16.6337884 52.6796425,16.9731482 52.602713,17.3549279 L52.4672253,18.0370869 L46.9535635,18.0370869 C42.2654583,18.0370869 38.3397587,21.1761649 38.3397587,26.1989189 C38.3409069,29.5569756 41.0495134,32.0207735 44.9235439,32.0207735 C47.3485447,32.0207735 49.0536234,31.0886806 50.2879396,29.8516225 L49.9469238,31.5851089 L55.0139354,31.5851089 L57.843103,17.5257543 C57.9613677,16.9318747 58.0520756,16.1671687 58.0520756,15.5698496 C58.0520756,10.8497678 53.8990321,9.40634226 50.1960835,9.40634226 L50.1960835,9.40634226 Z" id="Fill-20"></path>
                    <polygon id="Fill-22" points="9.17946893 14.3437978 21.5478914 1.54328446 28.7436678 1.54328446 16.5428827 13.5435507 23.3976434 31.5846503 17.052684 31.5846503 12.2417213 17.7763761 7.56394996 22.3772233 5.71190155 31.5846503 0.0776786453 31.5846503 6.11606834 1.54328446 11.7537358 1.54328446"></polygon>
                    <polygon id="Fill-24" points="131.458984 1.54316981 136.631631 1.54316981 140.930496 17.6971539 151.913039 1.54316981 157.301547 1.54316981 151.260861 31.5845357 145.748347 31.5845357 149.293992 13.9447061 141.700938 25.0919869 137.909578 25.0919869 134.502866 13.8243251 130.933108 31.5845357 125.420595 31.5845357"></polygon>
                    <path d="M179.819953,50.4859582 C179.793544,48.2789731 178.590229,46.8779676 176.609582,46.8779676 C175.290299,46.8779676 174.143246,47.4191088 173.224685,48.3351509 C172.163748,49.3967967 171.707912,50.8264645 170.961581,54.6648987 C170.529857,56.9246221 170.33007,58.2442272 170.33007,59.187785 C170.33007,61.5346413 172.078781,62.4529764 173.655261,62.4529764 C175.607203,62.4529764 177.95757,61.0210157 178.590229,57.6434687 L178.847426,56.3548187 L174.688642,56.3548187 L175.145626,53.8921673 L182.230027,53.8921673 L181.655926,56.9555772 C181.167941,59.6177171 180.425055,61.3076371 178.958802,62.7671135 C177.611962,64.1153807 175.664613,65.0279833 173.455474,65.0279833 C169.784675,65.0279833 167.378045,62.6249492 167.378045,59.3872735 C167.378045,58.300405 167.577832,56.9246221 168.00726,54.6648987 C168.954525,49.7992132 169.441363,48.252604 171.077549,46.6200083 C172.509356,45.1869011 174.547413,44.2995211 176.694549,44.2995211 C180.85563,44.2995211 182.744421,47.1336339 182.775422,50.4859582 L179.819953,50.4859582 Z" id="Fill-26"></path>
                    <path d="M192.985571,52.87833 C192.757079,52.7843182 192.275983,52.6593512 191.789146,52.6593512 C190.065696,52.6593512 188.847454,54.0615033 188.451325,56.0391912 L186.715245,64.6859866 L183.930857,64.6859866 L186.779544,50.5165694 L189.468631,50.5165694 L189.16321,51.9450906 C190.020916,50.8582221 191.241454,50.1691842 192.847787,50.1691842 C193.163542,50.1691842 193.36907,50.1978463 193.524078,50.2173366 L192.985571,52.87833 Z" id="Fill-28"></path>
                    <path d="M231.603823,57.5841954 C231.059576,60.3919389 230.199573,62.5691154 227.70568,62.5691154 C225.928265,62.5691154 225.553952,61.3079811 225.553952,60.0778019 C225.553952,59.3876174 225.725034,58.3855889 225.869707,57.5841954 C226.413954,54.7775983 227.2464,52.6336699 229.740293,52.6336699 C231.518856,52.6336699 231.91843,53.8913648 231.91843,55.1261299 C231.91843,55.8094354 231.747348,56.7839483 231.603823,57.5841954 M230.715116,50.1698721 C229.367127,50.1698721 228.046696,50.5413335 226.90194,51.8873077 L227.207361,50.5172573 L224.511385,50.5172573 L220.451346,70.7275079 L223.233437,70.7275079 L224.737581,63.2317841 C225.488504,64.5880768 226.864049,65.0283273 228.193666,65.0283273 C229.596768,65.0283273 230.856344,64.6568659 231.97584,63.5413353 C233.211305,62.3077166 233.840519,60.3334682 234.384766,57.5841954 C234.70167,56.0100704 234.757932,55.2075304 234.757932,54.4336526 C234.757932,52.2885777 233.811814,50.1698721 230.715116,50.1698721" id="Fill-30"></path>
                    <path d="M220.792132,50.517028 L217.944593,64.6864452 L215.268136,64.6864452 L215.523037,63.3416175 C214.575771,64.4009703 213.172669,65.028098 211.452664,65.028098 C209.499574,65.028098 207.616524,63.7405945 207.616524,60.963806 C207.616524,60.3917097 207.699194,59.9033067 207.789902,59.4470054 L209.586837,50.517028 L212.366632,50.517028 L210.614477,59.2486634 C210.537548,59.6189783 210.469804,60.0466174 210.469804,60.3917097 C210.469804,61.8798481 211.479073,62.5665931 212.655979,62.5665931 C213.658358,62.5665931 215.684933,62.0827761 216.265923,59.1878996 L218.008892,50.517028 L220.792132,50.517028 Z" id="Fill-32"></path>
                    <path d="M202.447552,57.5841954 C202.045682,59.6776783 201.53588,60.8723165 200.73214,61.6484873 C200.156891,62.2194372 199.343965,62.6138283 198.48511,62.6138283 C197.25309,62.6138283 196.202486,61.8468294 196.202486,60.0399678 C196.20019,59.5836665 196.255304,58.7868589 196.482647,57.5841954 C196.882221,55.4987378 197.396615,54.3293223 198.200356,53.5577374 C198.775605,52.9844946 199.588531,52.5901035 200.446238,52.5901035 C201.681702,52.5901035 202.732306,53.355956 202.735751,55.161671 C202.735751,55.6156794 202.678341,56.3849713 202.447552,57.5841954 M200.702286,50.1274521 C199.067248,50.1274521 197.535548,50.6926696 196.394236,51.7795381 C195.15992,52.9237308 194.302213,54.4944163 193.731557,57.5841954 C193.615589,58.2457176 193.445655,59.3543694 193.445655,60.2417493 C193.450248,63.9941971 196.277119,65.0741867 198.229061,65.0741867 C199.862951,65.0741867 201.424505,64.5089692 202.568113,63.4209543 C203.800133,62.275615 204.661284,60.6819998 205.230792,57.5841954 C205.344464,56.9284055 205.486841,55.8472695 205.486841,54.9564501 C205.482248,51.2085882 202.654228,50.1274521 200.702286,50.1274521" id="Fill-34"></path>
                </g>
                <g id="Group-88" transform="translate(479.658887, 65.000000)" fill="#FFFFFF">
                    <path d="M15.4772422,5.16813086 C15.0441241,4.73565984 14.7234732,4.59110461 14.1132792,4.59110461 C12.9586965,4.59110461 12.2192849,5.5038335 12.2192849,6.70567284 L12.2192849,11.5452863 L11.0647022,11.5452863 L11.0647022,3.66165033 L12.2192849,3.66165033 L12.2192849,4.62336074 C12.6535995,3.96629151 13.5186392,3.56488195 14.4339302,3.56488195 C15.1888957,3.56488195 15.7655888,3.74169331 16.3279244,4.30199415 L15.4772422,5.16813086 L15.4772422,5.16813086 Z" id="Fill-38"></path>
                    <path d="M22.1558752,7.90739272 L19.94123,7.90739272 C18.7531464,7.90739272 18.1764533,8.38765059 18.1764533,9.30157414 C18.1764533,10.2154977 18.7387889,10.6479687 19.9890883,10.6479687 C20.6638911,10.6479687 21.2573346,10.6001819 21.7550615,10.119924 C22.0278541,9.86306966 22.1558752,9.41387325 22.1558752,8.75680402 L22.1558752,7.90739272 Z M22.1558752,11.5451669 L22.1558752,10.7913293 C21.5145733,11.4328678 20.9354872,11.6407406 19.8778177,11.6407406 C18.7866472,11.6407406 18.1429524,11.4328678 17.646422,10.9191591 C17.2611623,10.5356696 17.051782,9.94311264 17.051782,9.31829954 C17.051782,7.93964884 18.0161278,7.04245068 19.7809045,7.04245068 L22.1558752,7.04245068 L22.1558752,6.28980776 C22.1558752,5.13575526 21.5791821,4.55872902 20.1338598,4.55872902 C19.1228522,4.55872902 18.6095713,4.79885795 18.1429524,5.45592718 L17.356879,4.73554037 C18.0639861,3.82161682 18.8656135,3.56476248 20.1494138,3.56476248 C22.2683423,3.56476248 23.3116544,4.47868604 23.3116544,6.19303938 L23.3116544,11.5451669 L22.1558752,11.5451669 Z" id="Fill-40"></path>
                    <path d="M31.1141211,11.5451669 L31.1141211,10.6646941 C30.5529819,11.3050379 29.7669085,11.6407406 28.8839219,11.6407406 C28.0332397,11.6407406 27.327329,11.3850809 26.8463526,10.904823 C26.284017,10.3600529 26.0435287,9.60621533 26.0435287,8.69229177 L26.0435287,3.66153086 L27.1993079,3.66153086 L27.1993079,8.51667509 C27.1993079,9.91085651 27.937523,10.6157126 29.1244101,10.6157126 C30.3124937,10.6157126 31.0985671,9.89413111 31.0985671,8.51667509 L31.0985671,3.66153086 L32.2543463,3.66153086 L32.2543463,11.5451669 L31.1141211,11.5451669 Z" id="Fill-42"></path>
                    <path d="M37.633984,11.6407406 C36.3023254,11.6407406 35.2590133,11.3360994 34.3927771,10.5034135 L35.1632966,9.73404516 C35.7878481,10.3911144 36.6385303,10.6479687 37.6172336,10.6479687 C38.9177843,10.6479687 39.7194117,10.1832416 39.7194117,9.25378729 C39.7194117,8.56446194 39.318598,8.18097245 38.4045035,8.0997348 L37.1051492,7.98743569 C35.5641103,7.85960586 34.7457325,7.17147519 34.7457325,5.87286747 C34.7457325,4.43089919 35.964924,3.56476248 37.6507344,3.56476248 C38.7730128,3.56476248 39.7840204,3.83834222 40.4911276,4.41417379 L39.7361621,5.16801139 C39.1738265,4.73554037 38.4523618,4.54319829 37.633984,4.54319829 C36.4782048,4.54319829 35.8680108,5.04018156 35.8680108,5.84180601 C35.8680108,6.51321129 36.254467,6.91462085 37.2487243,6.99346916 L38.5157741,7.10696294 C39.8964876,7.23479277 40.8440829,7.76403216 40.8440829,9.23706189 C40.8440829,10.7602678 39.5435322,11.6407406 37.633984,11.6407406" id="Fill-44"></path>
                    <path d="M45.5324067,11.6407406 C44.2007481,11.6407406 43.157436,11.3360994 42.2911998,10.5034135 L43.0617193,9.73404516 C43.6862708,10.3911144 44.536953,10.6479687 45.5156563,10.6479687 C46.816207,10.6479687 47.6178344,10.1832416 47.6178344,9.25378729 C47.6178344,8.56446194 47.2170207,8.18097245 46.3029262,8.0997348 L45.0035719,7.98743569 C43.462533,7.85960586 42.6441552,7.17147519 42.6441552,5.87286747 C42.6441552,4.43089919 43.8633467,3.56476248 45.5491571,3.56476248 C46.6714355,3.56476248 47.6824432,3.83834222 48.3895503,4.41417379 L47.6345848,5.16801139 C47.0722492,4.73554037 46.3507845,4.54319829 45.5324067,4.54319829 C44.3766275,4.54319829 43.7664335,5.04018156 43.7664335,5.84180601 C43.7664335,6.51321129 44.1528897,6.91462085 45.147147,6.99346916 L46.4141968,7.10696294 C47.7949103,7.23479277 48.7425057,7.76403216 48.7425057,9.23706189 C48.7425057,10.7602678 47.4419549,11.6407406 45.5324067,11.6407406" id="Fill-46"></path>
                    <polygon id="Fill-48" points="59.7859399 11.5451669 59.7859399 2.87663181 56.6572002 9.75077056 55.6138881 9.75077056 52.4348971 2.87663181 52.4348971 11.5451669 51.2169021 11.5451669 51.2169021 0.136055807 52.4348971 0.136055807 56.1594733 8.2287593 59.7859399 0.136055807 61.0063279 0.136055807 61.0063279 11.5451669"></polygon>
                    <path d="M68.5852961,7.90739272 L66.3706509,7.90739272 C65.1825673,7.90739272 64.6058742,8.38765059 64.6058742,9.30157414 C64.6058742,10.2154977 65.1682098,10.6479687 66.4185093,10.6479687 C67.093312,10.6479687 67.6867556,10.6001819 68.1844824,10.119924 C68.457275,9.86306966 68.5852961,9.41387325 68.5852961,8.75680402 L68.5852961,7.90739272 Z M68.5852961,11.5451669 L68.5852961,10.7913293 C67.9439942,11.4328678 67.3649082,11.6407406 66.3072386,11.6407406 C65.2160682,11.6407406 64.5723733,11.4328678 64.0758429,10.9191591 C63.6905832,10.5356696 63.4812029,9.94311264 63.4812029,9.31829954 C63.4812029,7.93964884 64.4455487,7.04245068 66.2103254,7.04245068 L68.5852961,7.04245068 L68.5852961,6.28980776 C68.5852961,5.13575526 68.008603,4.55872902 66.5632808,4.55872902 C65.5522731,4.55872902 65.0389923,4.79885795 64.5723733,5.45592718 L63.7862999,4.73554037 C64.4934071,3.82161682 65.2950345,3.56476248 66.5788347,3.56476248 C68.6977633,3.56476248 69.7410753,4.47868604 69.7410753,6.19303938 L69.7410753,11.5451669 L68.5852961,11.5451669 Z" id="Fill-50"></path>
                    <path d="M73.965891,4.59062674 L73.965891,11.5448085 L72.8101118,11.5448085 L72.8101118,4.59062674 L71.7991041,4.59062674 L71.7991041,3.71015398 L72.8101118,3.71015398 L72.8101118,2.22039885 C72.8101118,1.04962096 73.4681641,0.104635952 74.8165732,0.104635952 L75.6505049,0.104635952 L75.6505049,1.09740782 L75.024757,1.09740782 C74.2865419,1.09740782 73.965891,1.52987883 73.965891,2.25146031 L73.965891,3.71015398 L75.6505049,3.71015398 L75.6505049,4.59062674 L73.965891,4.59062674 Z" id="Fill-52"></path>
                    <path d="M79.0064522,4.59062674 L79.0064522,11.5448085 L77.850673,11.5448085 L77.850673,4.59062674 L76.8396653,4.59062674 L76.8396653,3.71015398 L77.850673,3.71015398 L77.850673,2.22039885 C77.850673,1.04962096 78.5087253,0.104635952 79.8571344,0.104635952 L80.6910662,0.104635952 L80.6910662,1.09740782 L80.0653182,1.09740782 C79.3271032,1.09740782 79.0064522,1.52987883 79.0064522,2.25146031 L79.0064522,3.71015398 L80.6910662,3.71015398 L80.6910662,4.59062674 L79.0064522,4.59062674 Z" id="Fill-54"></path>
                    <path d="M87.0637646,5.7280733 C86.7586677,5.00649183 86.052757,4.54295936 85.2188252,4.54295936 C84.383697,4.54295936 83.6777863,5.00649183 83.3726893,5.7280733 C83.1968098,6.16054432 83.1645054,6.40067325 83.1322011,7.04340642 L87.3042529,7.04340642 C87.2731449,6.40067325 87.2396441,6.16054432 87.0637646,5.7280733 L87.0637646,5.7280733 Z M83.1322011,7.90715378 C83.1322011,9.63823252 83.9505789,10.6310044 85.4593134,10.6310044 C86.3734079,10.6310044 86.9034392,10.359814 87.5291871,9.7350009 L88.3152605,10.4243262 C87.5136331,11.224756 86.7754181,11.6405016 85.427009,11.6405016 C83.3415813,11.6405016 81.9764219,10.3908754 81.9764219,7.6025126 C81.9764219,5.05666802 83.2123638,3.56452355 85.2188252,3.56452355 C87.2563945,3.56452355 88.4600321,5.03994262 88.4600321,7.37910906 L88.4600321,7.90715378 L83.1322011,7.90715378 Z" id="Fill-56"></path>
                    <path d="M90.9192335,11.5461226 L92.0750126,11.5461226 L92.0750126,3.6624866 L90.9192335,3.6624866 L90.9192335,11.5461226 Z M90.8558211,1.41889387 L92.1563718,1.41889387 L92.1563718,0.120286146 L90.8558211,0.120286146 L90.8558211,1.41889387 Z" id="Fill-58"></path>
                    <polygon id="Fill-60" points="7.94685023 33.8459769 4.46515515 27.7734626 2.0566836 30.6573991 2.0566836 33.8459769 0.838688551 33.8459769 0.838688551 22.4368658 2.0566836 22.4368658 2.0566836 28.9908326 7.3845146 22.4368658 8.87769517 22.4368658 5.2823365 26.8440083 9.39097599 33.8459769"></polygon>
                    <path d="M15.4772422,27.4690603 C15.0441241,27.0365893 14.7234732,26.8920341 14.1132792,26.8920341 C12.9586965,26.8920341 12.2192849,27.8047629 12.2192849,29.0066023 L12.2192849,33.8462158 L11.0647022,33.8462158 L11.0647022,25.9625798 L12.2192849,25.9625798 L12.2192849,26.9242902 C12.6535995,26.267221 13.5186392,25.8658114 14.4339302,25.8658114 C15.1888957,25.8658114 15.7655888,26.0426228 16.3279244,26.6029236 L15.4772422,27.4690603 Z" id="Fill-61"></path>
                    <path d="M22.1558752,30.2083222 L19.94123,30.2083222 C18.7531464,30.2083222 18.1764533,30.68858 18.1764533,31.6025036 C18.1764533,32.5164272 18.7387889,32.9488982 19.9890883,32.9488982 C20.6638911,32.9488982 21.2573346,32.9011113 21.7550615,32.4208534 C22.0278541,32.1639991 22.1558752,31.7148027 22.1558752,31.0577335 L22.1558752,30.2083222 Z M22.1558752,33.8460963 L22.1558752,33.0922587 C21.5145733,33.7337972 20.9354872,33.94167 19.8778177,33.94167 C18.7866472,33.94167 18.1429524,33.7337972 17.646422,33.2200886 C17.2611623,32.8365991 17.051782,32.2440421 17.051782,31.619229 C17.051782,30.2405783 18.0161278,29.3433801 19.7809045,29.3433801 L22.1558752,29.3433801 L22.1558752,28.5907372 C22.1558752,27.4366847 21.5791821,26.8596585 20.1338598,26.8596585 C19.1228522,26.8596585 18.6095713,27.0997874 18.1429524,27.7568566 L17.356879,27.0364698 C18.0639861,26.1225463 18.8656135,25.8656919 20.1494138,25.8656919 C22.2683423,25.8656919 23.3116544,26.7796155 23.3116544,28.4939688 L23.3116544,33.8460963 L22.1558752,33.8460963 Z" id="Fill-62"></path>
                    <path d="M31.1141211,33.8459769 L31.1141211,32.9655041 C30.5529819,33.6058479 29.7669085,33.9415506 28.8839219,33.9415506 C28.0332397,33.9415506 27.327329,33.6858909 26.8463526,33.205633 C26.284017,32.6608629 26.0435287,31.9070253 26.0435287,30.9931018 L26.0435287,25.9623408 L27.1993079,25.9623408 L27.1993079,30.8174851 C27.1993079,32.2116665 27.937523,32.9165226 29.1244101,32.9165226 C30.3124937,32.9165226 31.0985671,32.1949411 31.0985671,30.8174851 L31.0985671,25.9623408 L32.2543463,25.9623408 L32.2543463,33.8459769 L31.1141211,33.8459769 Z" id="Fill-63"></path>
                    <path d="M37.633984,33.94167 C36.3023254,33.94167 35.2590133,33.6370288 34.3927771,32.8043429 L35.1632966,32.0349746 C35.7878481,32.6920438 36.6385303,32.9488982 37.6172336,32.9488982 C38.9177843,32.9488982 39.7194117,32.484171 39.7194117,31.5547167 C39.7194117,30.8653914 39.318598,30.4819019 38.4045035,30.4006643 L37.1051492,30.2883651 C35.5641103,30.1605353 34.7457325,29.4724046 34.7457325,28.1737969 C34.7457325,26.7318286 35.964924,25.8656919 37.6507344,25.8656919 C38.7730128,25.8656919 39.7840204,26.1392717 40.4911276,26.7151032 L39.7361621,27.4689408 C39.1738265,27.0364698 38.4523618,26.8441277 37.633984,26.8441277 C36.4782048,26.8441277 35.8680108,27.341111 35.8680108,28.1427355 C35.8680108,28.8141407 36.254467,29.2155503 37.2487243,29.2943986 L38.5157741,29.4078924 C39.8964876,29.5357222 40.8440829,30.0649616 40.8440829,31.5379913 C40.8440829,33.0611973 39.5435322,33.94167 37.633984,33.94167" id="Fill-64"></path>
                    <path d="M45.5324067,33.94167 C44.2007481,33.94167 43.157436,33.6370288 42.2911998,32.8043429 L43.0617193,32.0349746 C43.6862708,32.6920438 44.536953,32.9488982 45.5156563,32.9488982 C46.816207,32.9488982 47.6178344,32.484171 47.6178344,31.5547167 C47.6178344,30.8653914 47.2170207,30.4819019 46.3029262,30.4006643 L45.0035719,30.2883651 C43.462533,30.1605353 42.6441552,29.4724046 42.6441552,28.1737969 C42.6441552,26.7318286 43.8633467,25.8656919 45.5491571,25.8656919 C46.6714355,25.8656919 47.6824432,26.1392717 48.3895503,26.7151032 L47.6345848,27.4689408 C47.0722492,27.0364698 46.3507845,26.8441277 45.5324067,26.8441277 C44.3766275,26.8441277 43.7664335,27.341111 43.7664335,28.1427355 C43.7664335,28.8141407 44.1528897,29.2155503 45.147147,29.2943986 L46.4141968,29.4078924 C47.7949103,29.5357222 48.7425057,30.0649616 48.7425057,31.5379913 C48.7425057,33.0611973 47.4419549,33.94167 45.5324067,33.94167" id="Fill-65"></path>
                    <polygon id="Fill-66" points="59.7859399 33.8459769 59.7859399 25.1774418 56.6572002 32.0515805 55.6138881 32.0515805 52.4348971 25.1774418 52.4348971 33.8459769 51.2169021 33.8459769 51.2169021 22.4368658 52.4348971 22.4368658 56.1594733 30.5295693 59.7859399 22.4368658 61.0063279 22.4368658 61.0063279 33.8459769"></polygon>
                    <path d="M68.5852961,30.2083222 L66.3706509,30.2083222 C65.1825673,30.2083222 64.6058742,30.68858 64.6058742,31.6025036 C64.6058742,32.5164272 65.1682098,32.9488982 66.4185093,32.9488982 C67.093312,32.9488982 67.6867556,32.9011113 68.1844824,32.4208534 C68.457275,32.1639991 68.5852961,31.7148027 68.5852961,31.0577335 L68.5852961,30.2083222 Z M68.5852961,33.8460963 L68.5852961,33.0922587 C67.9439942,33.7337972 67.3649082,33.94167 66.3072386,33.94167 C65.2160682,33.94167 64.5723733,33.7337972 64.0758429,33.2200886 C63.6905832,32.8365991 63.4812029,32.2440421 63.4812029,31.619229 C63.4812029,30.2405783 64.4455487,29.3433801 66.2103254,29.3433801 L68.5852961,29.3433801 L68.5852961,28.5907372 C68.5852961,27.4366847 68.008603,26.8596585 66.5632808,26.8596585 C65.5522731,26.8596585 65.0389923,27.0997874 64.5723733,27.7568566 L63.7862999,27.0364698 C64.4934071,26.1225463 65.2950345,25.8656919 66.5788347,25.8656919 C68.6977633,25.8656919 69.7410753,26.7796155 69.7410753,28.4939688 L69.7410753,33.8460963 L68.5852961,33.8460963 Z" id="Fill-67"></path>
                    <path d="M73.965891,26.8915562 L73.965891,33.8457379 L72.8101118,33.8457379 L72.8101118,26.8915562 L71.7991041,26.8915562 L71.7991041,26.0110834 L72.8101118,26.0110834 L72.8101118,24.5213283 C72.8101118,23.3505504 73.4681641,22.4055654 74.8165732,22.4055654 L75.6505049,22.4055654 L75.6505049,23.3983373 L75.024757,23.3983373 C74.2865419,23.3983373 73.965891,23.8308083 73.965891,24.5523898 L73.965891,26.0110834 L75.6505049,26.0110834 L75.6505049,26.8915562 L73.965891,26.8915562 Z" id="Fill-68"></path>
                    <path d="M79.0064522,26.8915562 L79.0064522,33.8457379 L77.850673,33.8457379 L77.850673,26.8915562 L76.8396653,26.8915562 L76.8396653,26.0110834 L77.850673,26.0110834 L77.850673,24.5213283 C77.850673,23.3505504 78.5087253,22.4055654 79.8571344,22.4055654 L80.6910662,22.4055654 L80.6910662,23.3983373 L80.0653182,23.3983373 C79.3271032,23.3983373 79.0064522,23.8308083 79.0064522,24.5523898 L79.0064522,26.0110834 L80.6910662,26.0110834 L80.6910662,26.8915562 L79.0064522,26.8915562 Z" id="Fill-69"></path>
                    <path d="M87.0637646,28.0290028 C86.7586677,27.3074213 86.052757,26.8438888 85.2188252,26.8438888 C84.383697,26.8438888 83.6777863,27.3074213 83.3726893,28.0290028 C83.1968098,28.4614738 83.1645054,28.7016027 83.1322011,29.3443359 L87.3042529,29.3443359 C87.2731449,28.7016027 87.2396441,28.4614738 87.0637646,28.0290028 L87.0637646,28.0290028 Z M83.1322011,30.2080832 C83.1322011,31.939162 83.9505789,32.9319338 85.4593134,32.9319338 C86.3734079,32.9319338 86.9034392,32.6607434 87.5291871,32.0359303 L88.3152605,32.7252557 C87.5136331,33.5256855 86.7754181,33.9414311 85.427009,33.9414311 C83.3415813,33.9414311 81.9764219,32.6918049 81.9764219,29.903442 C81.9764219,27.3575975 83.2123638,25.865453 85.2188252,25.865453 C87.2563945,25.865453 88.4600321,27.3408721 88.4600321,29.6800385 L88.4600321,30.2080832 L83.1322011,30.2080832 Z" id="Fill-70"></path>
                    <path d="M90.9192335,33.8470521 L92.0750126,33.8470521 L92.0750126,25.963416 L90.9192335,25.963416 L90.9192335,33.8470521 Z M90.8558211,23.7198233 L92.1563718,23.7198233 L92.1563718,22.4212156 L90.8558211,22.4212156 L90.8558211,23.7198233 Z" id="Fill-71"></path>
                    <path d="M103.519739,28.5738923 L100.405357,28.5738923 L100.405357,32.7564366 L103.519739,32.7564366 C104.932757,32.7564366 105.814547,31.9392814 105.814547,30.6573991 C105.814547,29.3755168 104.932757,28.5738923 103.519739,28.5738923 M103.391718,23.526406 L100.405357,23.526406 L100.405357,27.4843521 L103.391718,27.4843521 C104.658768,27.4843521 105.638668,26.859539 105.638668,25.4976137 C105.638668,24.1356884 104.658768,23.526406 103.391718,23.526406 M103.632206,33.8459769 L99.1873619,33.8459769 L99.1873619,22.4368658 L103.487435,22.4368658 C105.478342,22.4368658 106.857859,23.5741929 106.857859,25.482083 C106.857859,26.6839223 106.136395,27.6289073 105.173245,27.9813354 C106.263219,28.3827449 107.034935,29.3277299 107.034935,30.6896552 C107.034935,32.7564366 105.654222,33.8459769 103.632206,33.8459769" id="Fill-72"></path>
                    <path d="M114.356904,28.0290028 C114.051807,27.3074213 113.345896,26.8438888 112.511965,26.8438888 C111.676836,26.8438888 110.970926,27.3074213 110.665829,28.0290028 C110.489949,28.4614738 110.457645,28.7016027 110.42534,29.3443359 L114.597392,29.3443359 C114.566284,28.7016027 114.532783,28.4614738 114.356904,28.0290028 L114.356904,28.0290028 Z M110.42534,30.2080832 C110.42534,31.939162 111.243718,32.9319338 112.752453,32.9319338 C113.666547,32.9319338 114.196579,32.6607434 114.822326,32.0359303 L115.6084,32.7252557 C114.806773,33.5256855 114.068557,33.9414311 112.720148,33.9414311 C110.634721,33.9414311 109.269561,32.6918049 109.269561,29.903442 C109.269561,27.3575975 110.505503,25.865453 112.511965,25.865453 C114.549534,25.865453 115.753171,27.3408721 115.753171,29.6800385 L115.753171,30.2080832 L110.42534,30.2080832 Z" id="Fill-73"></path>
                    <path d="M122.624554,27.4690603 C122.191436,27.0365893 121.870785,26.8920341 121.260591,26.8920341 C120.106008,26.8920341 119.366597,27.8047629 119.366597,29.0066023 L119.366597,33.8462158 L118.212014,33.8462158 L118.212014,25.9625798 L119.366597,25.9625798 L119.366597,26.9242902 C119.800911,26.267221 120.665951,25.8658114 121.581242,25.8658114 C122.336207,25.8658114 122.9129,26.0426228 123.475236,26.6029236 L122.624554,27.4690603 Z" id="Fill-74"></path>
                    <path d="M127.313476,33.94167 C125.981817,33.94167 124.938505,33.6370288 124.072269,32.8043429 L124.842789,32.0349746 C125.46734,32.6920438 126.318022,32.9488982 127.296725,32.9488982 C128.597276,32.9488982 129.398904,32.484171 129.398904,31.5547167 C129.398904,30.8653914 128.99809,30.4819019 128.083995,30.4006643 L126.784641,30.2883651 C125.243602,30.1605353 124.425224,29.4724046 124.425224,28.1737969 C124.425224,26.7318286 125.644416,25.8656919 127.330226,25.8656919 C128.452505,25.8656919 129.463512,26.1392717 130.17062,26.7151032 L129.415654,27.4689408 C128.853318,27.0364698 128.131854,26.8441277 127.313476,26.8441277 C126.157697,26.8441277 125.547503,27.341111 125.547503,28.1427355 C125.547503,28.8141407 125.933959,29.2155503 126.928216,29.2943986 L128.195266,29.4078924 C129.575979,29.5357222 130.523575,30.0649616 130.523575,31.5379913 C130.523575,33.0611973 129.223024,33.94167 127.313476,33.94167" id="Fill-75"></path>
                    <path d="M134.859063,33.8459769 C133.51185,33.8459769 132.838244,32.9009918 132.838244,31.730214 L132.838244,26.8917951 L131.84279,26.8917951 L131.84279,26.0101277 L132.838244,26.0101277 L132.838244,23.5431314 L133.992827,23.5431314 L133.992827,26.0101277 L135.678637,26.0101277 L135.678637,26.8917951 L133.992827,26.8917951 L133.992827,31.6991525 C133.992827,32.420734 134.330228,32.8520103 135.068443,32.8520103 L135.678637,32.8520103 L135.678637,33.8459769 L134.859063,33.8459769 Z" id="Fill-76"></path>
                    <path d="M142.164042,27.4690603 C141.794336,27.0999069 141.281055,26.8920341 140.719916,26.8920341 C140.157581,26.8920341 139.659854,27.0999069 139.291345,27.4690603 C138.713455,28.0448919 138.648846,29.0233277 138.648846,29.9038005 C138.648846,30.7854679 138.713455,31.7639037 139.291345,32.3397353 C139.659854,32.7088887 140.157581,32.9167615 140.719916,32.9167615 C141.281055,32.9167615 141.794336,32.7088887 142.164042,32.3397353 C142.740735,31.7639037 142.788594,30.7854679 142.788594,29.9038005 C142.788594,29.0233277 142.740735,28.0448919 142.164042,27.4690603 M142.98242,33.0445913 C142.436835,33.5893615 141.683066,33.9417895 140.719916,33.9417895 C139.756767,33.9417895 139.001801,33.5893615 138.456216,33.0445913 C137.653392,32.2274362 137.494263,31.1223652 137.494263,29.9038005 C137.494263,28.6876251 137.653392,27.5813594 138.456216,26.7630096 C139.001801,26.2182394 139.756767,25.8658114 140.719916,25.8658114 C141.683066,25.8658114 142.436835,26.2182394 142.98242,26.7630096 C143.784047,27.5813594 143.944373,28.6876251 143.944373,29.9038005 C143.944373,31.1223652 143.784047,32.2274362 142.98242,33.0445913" id="Fill-77"></path>
                    <path d="M150.832506,27.4690603 C150.399388,27.0365893 150.078737,26.8920341 149.468543,26.8920341 C148.31396,26.8920341 147.574548,27.8047629 147.574548,29.0066023 L147.574548,33.8462158 L146.419966,33.8462158 L146.419966,25.9625798 L147.574548,25.9625798 L147.574548,26.9242902 C148.008863,26.267221 148.873903,25.8658114 149.789194,25.8658114 C150.544159,25.8658114 151.120852,26.0426228 151.683188,26.6029236 L150.832506,27.4690603 Z" id="Fill-78"></path>
                    <path d="M154.591301,26.8915562 L154.591301,33.8457379 L153.435521,33.8457379 L153.435521,26.8915562 L152.424514,26.8915562 L152.424514,26.0110834 L153.435521,26.0110834 L153.435521,24.5213283 C153.435521,23.3505504 154.093574,22.4055654 155.441983,22.4055654 L156.275915,22.4055654 L156.275915,23.3983373 L155.650167,23.3983373 C154.911952,23.3983373 154.591301,23.8308083 154.591301,24.5523898 L154.591301,26.0110834 L156.275915,26.0110834 L156.275915,26.8915562 L154.591301,26.8915562 Z" id="Fill-79"></path>
                    <path d="M159.631862,26.8915562 L159.631862,33.8457379 L158.476083,33.8457379 L158.476083,26.8915562 L157.465075,26.8915562 L157.465075,26.0110834 L158.476083,26.0110834 L158.476083,24.5213283 C158.476083,23.3505504 159.134135,22.4055654 160.482544,22.4055654 L161.316476,22.4055654 L161.316476,23.3983373 L160.690728,23.3983373 C159.952513,23.3983373 159.631862,23.8308083 159.631862,24.5523898 L159.631862,26.0110834 L161.316476,26.0110834 L161.316476,26.8915562 L159.631862,26.8915562 Z" id="Fill-80"></path>
                    <polygon id="Fill-81" points="8.12320826 56.1422471 2.05716218 46.9934542 2.05716218 56.1422471 0.837970676 56.1422471 0.837970676 44.733136 1.99374987 44.733136 8.05859948 53.8508675 8.05859948 44.733136 9.27898745 44.733136 9.27898745 56.1422471"></polygon>
                    <path d="M17.0347923,50.325273 C16.7296953,49.6036915 16.0237846,49.140159 15.1898528,49.140159 C14.3547246,49.140159 13.6488139,49.6036915 13.3437169,50.325273 C13.1678375,50.757744 13.1355331,50.9978729 13.1032287,51.6406061 L17.2752805,51.6406061 C17.2441726,50.9978729 17.2106717,50.757744 17.0347923,50.325273 L17.0347923,50.325273 Z M13.1032287,52.5043535 C13.1032287,54.2354322 13.9216065,55.2282041 15.430341,55.2282041 C16.3444356,55.2282041 16.8744668,54.9570137 17.5002147,54.3322006 L18.2862882,55.0215259 C17.4846608,55.8219557 16.7464457,56.2377013 15.3980366,56.2377013 C13.312609,56.2377013 11.9474495,54.9880751 11.9474495,52.1997123 C11.9474495,49.6538677 13.1833914,48.1617232 15.1898528,48.1617232 C17.2274221,48.1617232 18.4310597,49.6371423 18.4310597,51.9763087 L18.4310597,52.5043535 L13.1032287,52.5043535 Z" id="Fill-82"></path>
                    <path d="M23.104667,56.1422471 C21.7574544,56.1422471 21.0838481,55.1972621 21.0838481,54.0264842 L21.0838481,49.1880654 L20.0883944,49.1880654 L20.0883944,48.3063979 L21.0838481,48.3063979 L21.0838481,45.8394017 L22.2384309,45.8394017 L22.2384309,48.3063979 L23.9242413,48.3063979 L23.9242413,49.1880654 L22.2384309,49.1880654 L22.2384309,53.9954227 C22.2384309,54.7170042 22.5758322,55.1482806 23.3140473,55.1482806 L23.9242413,55.1482806 L23.9242413,56.1422471 L23.104667,56.1422471 Z" id="Fill-83"></path>
                    <path d="M28.6429551,56.2379403 C27.3112965,56.2379403 26.2679844,55.9332991 25.4017483,55.1006132 L26.1722677,54.3312448 C26.7968192,54.9883141 27.6475014,55.2451684 28.6262047,55.2451684 C29.9267554,55.2451684 30.7283828,54.7804413 30.7283828,53.850987 C30.7283828,53.1616616 30.3275691,52.7781721 29.4134746,52.6969345 L28.1141203,52.5846354 C26.5730814,52.4568055 25.7547036,51.7686749 25.7547036,50.4700672 C25.7547036,49.0280989 26.9738951,48.1619622 28.6597055,48.1619622 C29.7819839,48.1619622 30.7929916,48.4355419 31.5000987,49.0113735 L30.7451332,49.7652111 C30.1827976,49.3327401 29.4613329,49.140398 28.6429551,49.140398 C27.4871759,49.140398 26.8769819,49.6373812 26.8769819,50.4390057 C26.8769819,51.110411 27.2634381,51.5118205 28.2576954,51.5906688 L29.5247452,51.7041626 C30.9054587,51.8319925 31.8530541,52.3612318 31.8530541,53.8342616 C31.8530541,55.3574675 30.5525034,56.2379403 28.6429551,56.2379403" id="Fill-84"></path>
                    <path d="M36.1886618,56.1422471 C34.8414492,56.1422471 34.1678429,55.1972621 34.1678429,54.0264842 L34.1678429,49.1880654 L33.1723892,49.1880654 L33.1723892,48.3063979 L34.1678429,48.3063979 L34.1678429,45.8394017 L35.3224256,45.8394017 L35.3224256,48.3063979 L37.0082361,48.3063979 L37.0082361,49.1880654 L35.3224256,49.1880654 L35.3224256,53.9954227 C35.3224256,54.7170042 35.659827,55.1482806 36.3980421,55.1482806 L37.0082361,55.1482806 L37.0082361,56.1422471 L36.1886618,56.1422471 Z" id="Fill-85"></path>
                    <path d="M43.7166609,52.5045924 L41.5020156,52.5045924 C40.313932,52.5045924 39.7372389,52.9848503 39.7372389,53.8987738 C39.7372389,54.8126974 40.2995745,55.2451684 41.549874,55.2451684 C42.2246767,55.2451684 42.8181203,55.1973815 43.3158472,54.7171237 C43.5886398,54.4602693 43.7166609,54.0110729 43.7166609,53.3540037 L43.7166609,52.5045924 Z M43.7166609,56.1423666 L43.7166609,55.388529 C43.0753589,56.0300675 42.4962729,56.2379403 41.4386033,56.2379403 C40.3474329,56.2379403 39.7037381,56.0300675 39.2072077,55.5163588 C38.8219479,55.1328693 38.6125676,54.5403123 38.6125676,53.9154992 C38.6125676,52.5368485 39.5769134,51.6396504 41.3416901,51.6396504 L43.7166609,51.6396504 L43.7166609,50.8870074 C43.7166609,49.7329549 43.1399677,49.1559287 41.6946455,49.1559287 C40.6836378,49.1559287 40.170357,49.3960576 39.7037381,50.0531269 L38.9176646,49.3327401 C39.6247718,48.4188165 40.4263992,48.1619622 41.7101995,48.1619622 C43.829128,48.1619622 44.87244,49.0758857 44.87244,50.7902391 L44.87244,56.1423666 L43.7166609,56.1423666 Z" id="Fill-86"></path>
                    <path d="M49.6581556,56.1422471 C48.2786386,56.1422471 47.6528906,55.2450489 47.6528906,54.0432096 L47.6528906,44.733136 L48.8074734,44.733136 L48.8074734,53.9954227 C48.8074734,54.7647911 49.064712,55.1482806 49.8675359,55.1482806 L50.4932838,55.1482806 L50.4932838,56.1422471 L49.6581556,56.1422471 Z" id="Fill-87"></path>
                    <polygon id="Fill-37" points="7.94685023 12.7219181 4.46515515 6.64940382 2.0566836 9.53334038 2.0566836 12.7219181 0.838688551 12.7219181 0.838688551 1.31280705 2.0566836 1.31280705 2.0566836 7.86677389 7.3845146 1.31280705 8.87769517 1.31280705 5.2823365 5.71994954 9.39097599 12.7219181"></polygon>
                </g>
            </g>
        </g>
    </g>
</svg>