<?xml version="1.0" encoding="UTF-8" standalone="no"?>
<svg width="30px" height="30px" viewBox="0 0 30 30" version="1.1" xmlns="http://www.w3.org/2000/svg" xmlns:xlink="http://www.w3.org/1999/xlink">
    <!-- Generator: Sketch 39.1 (31720) - http://www.bohemiancoding.com/sketch -->
    <title>Login_Icon</title>
    <desc>Created with Sketch.</desc>
    <defs></defs>
    <g id="Desktop" stroke="none" stroke-width="1" fill="none" fill-rule="evenodd">
        <g id="1_Einführung_Elios" transform="translate(-1115.000000, -40.000000)" fill="#FFFFFF">
            <g id="Login_Icon" transform="translate(1115.000000, 40.000000)">
                <path d="M14.992931,28.6065517 C7.48637931,28.6065517 1.37948276,22.4996552 1.37948276,14.9931034 C1.37948276,7.4862069 7.48637931,1.37931034 14.992931,1.37931034 C22.4994828,1.37931034 28.6063793,7.4862069 28.6063793,14.9931034 C28.6063793,22.4996552 22.4994828,28.6065517 14.992931,28.6065517 M14.992931,0 C6.71258621,0 0.000172413793,6.71241379 0.000172413793,14.9931034 C0.000172413793,23.2734483 6.71258621,29.9858621 14.992931,29.9858621 C23.2732759,29.9858621 29.9856897,23.2734483 29.9856897,14.9931034 C29.9856897,6.71241379 23.2732759,0 14.992931,0" id="Fill-1"></path>
                <path d="M17.6966897,9.45882759 C17.4273793,9.18951724 16.9908276,9.18951724 16.7215172,9.45882759 C16.4522069,9.72813793 16.4522069,10.1646897 16.7215172,10.434 L20.5070345,14.2198621 L8.48806897,14.2198621 C8.10703448,14.2198621 7.79841379,14.5284828 7.79841379,14.9095172 C7.79841379,15.2902069 8.10703448,15.5991724 8.48806897,15.5991724 L20.5070345,15.5991724 L16.7215172,19.3846897 C16.4522069,19.654 16.4522069,20.0905517 16.7215172,20.3598621 C16.856,20.4946897 17.0325517,20.561931 17.2091034,20.561931 C17.3856552,20.561931 17.5618621,20.4946897 17.6966897,20.3598621 L22.6597931,15.3971034 C22.9291034,15.1274483 22.9291034,14.6912414 22.6597931,14.421931 L17.6966897,9.45882759 Z" id="Fill-3"></path>
            </g>
        </g>
    </g>
</svg>