<?xml version="1.0" encoding="UTF-8" standalone="no"?>
<svg width="18px" height="18px" viewBox="0 0 18 18" version="1.1" xmlns="http://www.w3.org/2000/svg" xmlns:xlink="http://www.w3.org/1999/xlink">
    <!-- Generator: Sketch 39.1 (31720) - http://www.bohemiancoding.com/sketch -->
    <title>Lupe_seitlich</title>
    <desc>Created with Sketch.</desc>
    <defs></defs>
    <g id="Desktop" stroke="none" stroke-width="1" fill="none" fill-rule="evenodd">
        <g id="5_Maschinen_unterseite" transform="translate(-363.000000, -243.000000)" fill="#00325A">
            <g id="Filter_links" transform="translate(50.000000, 201.000000)">
                <g id="Search" transform="translate(21.000000, 42.000000)">
                    <path d="M302.382553,9.3515686 L301.939826,9.97247362 L301.320218,10.413821 C300.554773,10.9608212 299.659667,11.2491543 298.726471,11.2491543 C296.253776,11.2491543 294.241548,9.23056238 294.241548,6.75084574 C294.241548,4.2674859 296.253776,2.24915426 298.726471,2.24915426 C301.202035,2.24915426 303.211393,4.2674859 303.211393,6.75084574 C303.214263,7.68454532 302.925199,8.58233338 302.382553,9.3515686 M309.613059,16.0743097 L304.208246,10.6558335 C304.990648,9.55194448 305.455811,8.20630331 305.455811,6.75084574 C305.455811,3.02099176 302.443079,0 298.726471,0 C295.01195,0 292,3.02099176 292,6.75084574 C292,10.4773168 295.01195,13.4983085 298.726471,13.4983085 C300.179877,13.4983085 301.521101,13.0314587 302.619439,12.2489519 L308.024252,17.6676883 C308.242093,17.8868006 308.531157,18 308.81709,18 C309.106936,18 309.39313,17.8868006 309.613059,17.6676883 C310.050829,17.2281625 310.050829,16.5138355 309.613059,16.0743097" id="Lupe_seitlich"></path>
                </g>
            </g>
        </g>
    </g>
</svg>