<?xml version="1.0" encoding="UTF-8" standalone="no"?>
<svg width="750px" height="170px" viewBox="0 0 750 170" version="1.1" xmlns="http://www.w3.org/2000/svg" xmlns:xlink="http://www.w3.org/1999/xlink">
    <!-- Generator: Sketch 39.1 (31720) - http://www.bohemiancoding.com/sketch -->
    <title>Netstal Modul</title>
    <desc>Created with Sketch.</desc>
    <defs></defs>
    <g id="Symbols" stroke="none" stroke-width="1" fill="none" fill-rule="evenodd">
        <g id="Netstal-Modul">
            <g>
                <polygon id="Fill-1" fill="#00325A" points="0 0 0 170 715.362043 170 749.876603 0.00687146322"></polygon>
                <path d="M134.355413,94.649576 C134.355413,100.722724 137.980319,104.520684 143.992326,104.520684 C149.165448,104.520684 153.613846,100.65607 153.629238,95.4494165 C153.636934,95.4788978 153.631803,93.9253614 153.631803,93.2267828 C153.631803,81.4470807 140.240433,83.8389114 140.240433,76.7275091 C140.240433,76.239145 140.250695,75.6674641 140.250695,75.7392447 C140.250695,73.3794589 142.134979,72.2155884 143.862773,72.2155884 C145.8625,72.2155884 147.667256,73.3794589 147.667256,75.7712896 L147.672387,79.9999334 L153.508664,79.9999334 L153.502251,75.7712896 C153.502251,70.2531593 149.328351,66.4026452 144.116747,66.4026452 C138.624233,66.4026452 134.322063,69.8840022 134.322063,75.7097634 C134.305388,76.0212397 134.333607,76.9889955 134.333607,77.3107262 C134.333607,87.6394355 147.672387,86.5358095 147.672387,93.0319499 C147.672387,93.3306082 147.699324,94.4188528 147.672387,94.7136658 C147.672387,96.4287083 146.325554,98.7333769 143.994891,98.7333769 C142.215789,98.7333769 140.277631,97.6553868 140.277631,94.649576 L140.284045,90.0543386 L134.360544,90.0543386 L134.355413,94.649576 Z M225.47317,112.239658 L140.189125,130.277086 L55,112.205049 L55,58.3273325 L140.21991,40.2770862 L225.47317,58.3273325 L225.47317,112.239658 Z M60.9299143,107.341917 L60.9299143,63.2353281 L140.189125,46.406633 L219.472707,63.2148194 L219.472707,107.300899 L140.175016,124.006542 L60.9299143,107.341917 Z M84.2775888,67.0140617 L84.2570656,87.4792111 L76.6096183,67.0140617 L70.3628776,67.0140617 L70.3628776,103.942594 L76.2466147,103.942594 L76.2671379,83.546662 L83.9274122,103.942594 L90.1241277,103.942594 L90.1241277,67.0140617 L84.2775888,67.0140617 Z M112.721424,103.942594 L112.721424,97.9719903 L101.799248,97.9719903 L101.799248,87.8329867 L112.123686,87.8329867 L112.123686,81.8675097 L101.799248,81.8675097 L101.799248,73.0397831 L112.422555,73.0397831 L112.422555,67.0140617 L96.0309534,67.0140617 L96.0309534,103.942594 L112.721424,103.942594 Z M173.055704,73.0397831 L173.055704,67.0140617 L155.054316,67.0140617 L155.054316,73.0397831 L161.022711,73.0397831 L161.022711,103.942594 L166.993672,103.942594 L166.993672,73.0397831 L173.055704,73.0397831 Z M197.432102,103.942594 L213.749308,103.942594 L213.749308,97.9771175 L203.437696,97.9771175 L203.444109,67.0704607 L197.375664,67.0704607 L197.432102,103.942594 Z M185.501725,67.0473884 L179.909161,67.0473884 L171.839706,103.942594 L177.99281,103.942594 L179.498697,96.700449 L186.150771,96.700449 L187.738751,103.942594 L193.891855,103.942594 L185.501725,67.0473884 Z M184.830874,90.6567825 L180.796788,90.6567825 L182.78497,80.4767614 L184.830874,90.6567825 Z M132.959838,73.0397831 L132.959838,67.0140617 L114.95845,67.0140617 L114.95845,73.0397831 L120.924279,73.0397831 L120.924279,103.942594 L126.893957,103.942594 L126.893957,73.0397831 L132.959838,73.0397831 L132.959838,73.0397831 Z" id="Page-1" fill="#FFFFFF"></path>
                <g id="Page-1" transform="translate(473.000000, 76.000000)" fill="#FFFFFF">
                    <polygon id="Fill-1" points="3.11285455 0.533026667 0.000309090909 15.91236 9.27458182 15.91236 9.53421818 14.55076 1.85176364 14.55076 3.02630909 8.82682667 9.49094545 8.82682667 9.75367273 7.46676 3.28749091 7.46676 4.41876364 1.89309333 11.9513091 1.89309333 12.2341273 0.533026667"></polygon>
                    <g id="Group-38" transform="translate(11.818182, 0.304060)">
                        <path d="M9.75651818,8.89046 L8.40733636,15.6079933 L6.88351818,15.6079933 L8.21106364,9.04226 C8.27597273,8.69572667 8.31924545,8.32772667 8.31924545,8.04712667 C8.31924545,6.75146 7.49242727,6.14732667 6.35960909,6.14732667 C5.62088182,6.14732667 3.72615455,6.51532667 3.20379091,9.08519333 L1.89788182,15.6079933 L0.374063636,15.6079933 L2.50679091,4.95899333 L3.98733636,4.95899333 L3.76942727,6.14732667 C4.48806364,5.32699333 5.51115455,4.83019333 6.92679091,4.83019333 C8.55879091,4.83019333 9.88633636,5.90966 9.88633636,7.83246 C9.88633636,8.13452667 9.82142727,8.56692667 9.75651818,8.89046" id="Fill-2"></path>
                        <g id="Group-6" transform="translate(10.818182, 4.600000)">
                            <path d="M6.60255455,1.56848667 C4.48991818,1.56848667 3.68473636,3.46982 3.2721,5.60728667 C3.14073636,6.27735333 3.03255455,6.92595333 3.03255455,7.46568667 C3.03255455,8.67395333 3.46837273,9.62462 4.96900909,9.62462 C7.03682727,9.62462 7.88682727,7.70335333 8.30100909,5.58582 C8.43082727,4.91575333 8.54055455,4.26868667 8.54055455,3.72895333 C8.54055455,2.28302 7.86519091,1.56848667 6.60255455,1.56848667 L6.60255455,1.56848667 Z M8.67037273,11.24382 C7.90846364,15.0679533 5.46973636,15.86682 3.6631,15.86682 C2.20419091,15.86682 1.18264545,15.3914867 0.377463636,14.4423533 L1.46391818,13.4916867 C1.94300909,14.0743533 2.55346364,14.5711533 3.6631,14.5711533 C5.18691818,14.5711533 6.64582727,13.66342 7.16819091,11.24382 L7.51591818,9.60315333 C6.8421,10.4449533 5.97046364,10.9647533 4.55637273,10.9647533 C2.64000909,10.9647533 1.4871,9.77642 1.4871,7.68035333 C1.4871,7.16362 1.55200909,6.49355333 1.72664545,5.58582 C2.07437273,3.72895333 2.5751,2.28302 3.53328182,1.33082 C4.3601,0.51202 5.40482727,0.229886667 6.40628182,0.229886667 C7.42937273,0.229886667 8.54055455,0.531953333 9.10619091,1.72028667 L9.36737273,0.358686667 L10.8680091,0.358686667 L8.67037273,11.24382 Z" id="Fill-4"></path>
                        </g>
                        <path d="M27.6094545,1.93664 L25.8893636,1.93664 L26.1953636,0.360373333 L27.9355455,0.360373333 L27.6094545,1.93664 Z M24.8013636,15.60784 L23.2775455,15.60784 L25.4102727,4.95884 L26.9356364,4.95884 L24.8013636,15.60784 Z" id="Fill-7"></path>
                        <path d="M37.8854909,8.89046 L36.5363091,15.6079933 L35.0124909,15.6079933 L36.3400364,9.04226 C36.4049455,8.69572667 36.4482182,8.32772667 36.4482182,8.04712667 C36.4482182,6.75146 35.6214,6.14732667 34.4885818,6.14732667 C33.7498545,6.14732667 31.8551273,6.51532667 31.3327636,9.08519333 L30.0268545,15.6079933 L28.5030364,15.6079933 L30.6357636,4.95899333 L32.1163091,4.95899333 L31.8984,6.14732667 C32.6170364,5.32699333 33.6401273,4.83019333 35.0557636,4.83019333 C36.6877636,4.83019333 38.0153091,5.90966 38.0153091,7.83246 C38.0153091,8.13452667 37.9504,8.56692667 37.8854909,8.89046" id="Fill-9"></path>
                        <path d="M45.6583545,6.1047 C44.0912636,6.1047 42.8502636,7.18416667 42.2398091,9.56083333 L47.6396273,9.56083333 C47.7045364,9.2143 47.7261727,8.91223333 47.7261727,8.47983333 C47.7261727,6.8177 46.7679909,6.1047 45.6583545,6.1047 M48.9455364,10.6617667 L42.0234455,10.6617667 C41.9569909,11.0926333 41.8920818,11.5265667 41.8920818,12.0003667 C41.8920818,13.4049 42.5890818,14.4414333 44.1994455,14.4414333 C45.4620818,14.4414333 46.3120818,14.0090333 47.2254455,13.1887 L48.1403545,14.1823 C46.9859,15.2403 45.7232636,15.7371 44.0912636,15.7371 C42.0002636,15.7371 40.4331727,14.5273 40.4331727,12.0647667 C40.4331727,8.89076667 41.9137182,4.8305 45.7232636,4.8305 C48.0089909,4.8305 49.2067182,6.4497 49.2067182,8.47983333 C49.2067182,9.01956667 49.0969909,9.84143333 48.9455364,10.6617667" id="Fill-11"></path>
                        <path d="M56.6745091,6.1047 C55.1074182,6.1047 53.8664182,7.18416667 53.2559636,9.56083333 L58.6557818,9.56083333 C58.7206909,9.2143 58.7423273,8.91223333 58.7423273,8.47983333 C58.7423273,6.8177 57.7841455,6.1047 56.6745091,6.1047 M59.9616909,10.6617667 L53.0396,10.6617667 C52.9746909,11.0926333 52.9082364,11.5265667 52.9082364,12.0003667 C52.9082364,13.4049 53.6052364,14.4414333 55.2156,14.4414333 C56.4782364,14.4414333 57.3282364,14.0090333 58.2416,13.1887 L59.1565091,14.1823 C58.0020545,15.2403 56.7394182,15.7371 55.1074182,15.7371 C53.0164182,15.7371 51.4493273,14.5273 51.4493273,12.0647667 C51.4493273,8.89076667 52.9298727,4.8305 56.7394182,4.8305 C59.0251455,4.8305 60.2228727,6.4497 60.2228727,8.47983333 C60.2228727,9.01956667 60.1131455,9.84143333 59.9616909,10.6617667" id="Fill-13"></path>
                        <path d="M69.6504545,6.92488 C69.3676364,6.55688 68.9101818,6.16894667 68.1266364,6.16894667 C66.6028182,6.16894667 65.3401818,7.44314667 65.0140909,9.08534667 L63.7081818,15.6081467 L62.1843636,15.6081467 L64.3170909,4.95914667 L65.8192727,4.95914667 L65.5580909,6.25481333 C66.2118182,5.37008 67.2781818,4.83034667 68.5624545,4.83034667 C69.5855455,4.83034667 70.3258182,5.17534667 70.8914545,5.82394667 L69.6504545,6.92488 Z" id="Fill-15"></path>
                        <path d="M75.2018818,1.93664 L73.4817909,1.93664 L73.7877909,0.360373333 L75.5295182,0.360373333 L75.2018818,1.93664 Z M72.3937909,15.60784 L70.8699727,15.60784 L73.0027,4.95884 L74.5280636,4.95884 L72.3937909,15.60784 Z" id="Fill-17"></path>
                        <path d="M85.4779182,8.89046 L84.1287364,15.6079933 L82.6049182,15.6079933 L83.9324636,9.04226 C83.9973727,8.69572667 84.0406455,8.32772667 84.0406455,8.04712667 C84.0406455,6.75146 83.2138273,6.14732667 82.0810091,6.14732667 C81.3422818,6.14732667 79.4475545,6.51532667 78.9251909,9.08519333 L77.6192818,15.6079933 L76.0954636,15.6079933 L78.2281909,4.95899333 L79.7087364,4.95899333 L79.4908273,6.14732667 C80.2094636,5.32699333 81.2325545,4.83019333 82.6481909,4.83019333 C84.2801909,4.83019333 85.6077364,5.90966 85.6077364,7.83246 C85.6077364,8.13452667 85.5428273,8.56692667 85.4779182,8.89046" id="Fill-19"></path>
                        <g id="Group-23" transform="translate(86.545455, 4.600000)">
                            <path d="M6.59652727,1.56848667 C4.48389091,1.56848667 3.67870909,3.46982 3.26607273,5.60728667 C3.13470909,6.27735333 3.02652727,6.92595333 3.02652727,7.46568667 C3.02652727,8.67395333 3.46234545,9.62462 4.96298182,9.62462 C7.0308,9.62462 7.8808,7.70335333 8.29498182,5.58582 C8.4248,4.91575333 8.53452727,4.26868667 8.53452727,3.72895333 C8.53452727,2.28302 7.85916364,1.56848667 6.59652727,1.56848667 L6.59652727,1.56848667 Z M8.66434545,11.24382 C7.90243636,15.0679533 5.46370909,15.86682 3.65707273,15.86682 C2.19816364,15.86682 1.17661818,15.3914867 0.371436364,14.4423533 L1.45789091,13.4916867 C1.93698182,14.0743533 2.54743636,14.5711533 3.65707273,14.5711533 C5.18089091,14.5711533 6.6398,13.66342 7.16216364,11.24382 L7.50989091,9.60315333 C6.83607273,10.4449533 5.96443636,10.9647533 4.55034545,10.9647533 C2.63398182,10.9647533 1.48107273,9.77642 1.48107273,7.68035333 C1.48107273,7.16362 1.54598182,6.49355333 1.72061818,5.58582 C2.06834545,3.72895333 2.56907273,2.28302 3.52725455,1.33082 C4.35407273,0.51202 5.3988,0.229886667 6.40025455,0.229886667 C7.42334545,0.229886667 8.53452727,0.531953333 9.10016364,1.72028667 L9.36134545,0.358686667 L10.8619818,0.358686667 L8.66434545,11.24382 Z" id="Fill-21"></path>
                        </g>
                        <path d="M112.561855,1.61157333 L108.795582,1.61157333 L107.554582,7.81084 L111.299218,7.81084 C113.563309,7.81084 115.1304,6.21310667 115.1304,4.00970667 C115.1304,2.75697333 114.455036,1.61157333 112.561855,1.61157333 M111.234309,9.17090667 L107.271764,9.17090667 L105.965855,15.60784 L104.397218,15.60784 L107.511309,0.23004 L112.779764,0.23004 C115.652764,0.23004 116.719127,2.06544 116.719127,3.94530667 C116.719127,6.86017333 114.694582,9.17090667 111.234309,9.17090667" id="Fill-24"></path>
                        <path d="M120.944709,10.6616133 C119.311164,10.6616133 118.179891,11.5034133 118.179891,13.0582133 C118.179891,13.9659467 118.811982,14.4627467 120.312618,14.4627467 C121.249164,14.4627467 122.032709,14.1821467 122.598345,13.6209467 C123.034164,13.2100133 123.338618,12.60588 123.469982,11.8913467 L123.709527,10.6616133 L120.944709,10.6616133 Z M125.669164,8.43674667 L124.231891,15.6081467 L122.729709,15.6081467 L122.969255,14.5486133 C122.164073,15.34748 121.249164,15.7369467 119.899982,15.7369467 C118.201527,15.7369467 116.677709,15.0454133 116.677709,13.1456133 C116.677709,12.2593467 116.938891,11.33168 117.635891,10.6616133 C118.505982,9.81828 119.572345,9.53921333 120.791709,9.53921333 L123.927436,9.53921333 L124.165436,8.41528 C124.210255,8.22054667 124.253527,7.96294667 124.253527,7.70228 C124.253527,6.66574667 123.426709,6.12601333 122.097618,6.12601333 C120.770073,6.12601333 119.986527,6.53541333 119.202982,7.40021333 L118.311255,6.36214667 C119.267891,5.32714667 120.377527,4.83034667 122.185709,4.83034667 C123.709527,4.83034667 125.777345,5.30568 125.777345,7.59494667 C125.777345,7.81114667 125.710891,8.19908 125.669164,8.43674667 L125.669164,8.43674667 Z" id="Fill-26"></path>
                        <path d="M135.400427,6.94619333 C134.703427,6.34206 134.007973,6.08292667 132.896791,6.08292667 C131.090155,6.08292667 130.220064,7.20532667 130.220064,8.24186 C130.220064,8.95639333 130.764064,9.29986 131.808791,9.45319333 L133.246064,9.64639333 C135.139245,9.92699333 135.857882,10.6829267 135.857882,12.2591933 C135.857882,13.01666 135.573518,13.8369933 134.791518,14.57146 C133.963155,15.3703267 132.549064,15.7367933 131.111791,15.7367933 C129.326791,15.7367933 128.085791,15.2185267 127.149245,14.20346 L128.282064,13.2313267 C128.979064,14.0301933 129.827518,14.4411267 131.241609,14.4411267 C133.354245,14.4411267 134.334064,13.27426 134.334064,12.30366 C134.334064,11.3529933 133.746791,11.0923267 132.831882,10.9635267 L131.372973,10.74886 C129.130518,10.4253267 128.6947,9.32132667 128.6947,8.43659333 C128.6947,7.63772667 129.022336,6.68859333 129.696155,6.01852667 C130.459609,5.26106 131.569245,4.83019333 133.093064,4.83019333 C134.530336,4.83019333 135.618336,5.21966 136.488427,6.01852667 L135.400427,6.94619333 Z" id="Fill-28"></path>
                        <path d="M145.414664,6.94619333 C144.717664,6.34206 144.022209,6.08292667 142.911027,6.08292667 C141.104391,6.08292667 140.2343,7.20532667 140.2343,8.24186 C140.2343,8.95639333 140.7783,9.29986 141.823027,9.45319333 L143.2603,9.64639333 C145.153482,9.92699333 145.872118,10.6829267 145.872118,12.2591933 C145.872118,13.01666 145.587755,13.8369933 144.805755,14.57146 C143.977391,15.3703267 142.5633,15.7367933 141.126027,15.7367933 C139.341027,15.7367933 138.100027,15.2185267 137.163482,14.20346 L138.2963,13.2313267 C138.9933,14.0301933 139.841755,14.4411267 141.255845,14.4411267 C143.368482,14.4411267 144.3483,13.27426 144.3483,12.30366 C144.3483,11.3529933 143.761027,11.0923267 142.846118,10.9635267 L141.387209,10.74886 C139.144755,10.4253267 138.708936,9.32132667 138.708936,8.43659333 C138.708936,7.63772667 139.036573,6.68859333 139.710391,6.01852667 C140.473845,5.26106 141.583482,4.83019333 143.1073,4.83019333 C144.544573,4.83019333 145.632573,5.21966 146.502664,6.01852667 L145.414664,6.94619333 Z" id="Fill-30"></path>
                        <path d="M152.425773,1.93664 L150.705682,1.93664 L151.011682,0.360373333 L152.753409,0.360373333 L152.425773,1.93664 Z M149.617682,15.60784 L148.093864,15.60784 L150.226591,4.95884 L151.751955,4.95884 L149.617682,15.60784 Z" id="Fill-32"></path>
                        <path d="M158.761055,6.14717333 C158.020782,6.14717333 157.280509,6.47070667 156.779782,6.96750667 C156.1276,7.61610667 155.6686,8.54377333 155.320873,10.2933067 C155.167873,11.0507733 155.102964,11.69784 155.102964,12.13024 C155.102964,13.7709067 156.082782,14.4195067 157.172327,14.4195067 C157.934236,14.4195067 158.674509,14.0959733 159.173691,13.5991733 C159.827418,12.9505733 160.284873,12.0229067 160.6326,10.2933067 C160.7856,9.51590667 160.850509,8.86884 160.850509,8.43644 C160.850509,6.79577333 159.870691,6.14717333 158.761055,6.14717333 M162.134782,10.2933067 C161.677327,12.62704 160.980327,13.7939067 160.110236,14.5927733 C159.218509,15.39164 158.193873,15.73664 157.0626,15.73664 C155.342509,15.73664 153.602327,14.7875067 153.602327,12.2375733 C153.602327,11.5889733 153.732145,10.7701733 153.818691,10.2933067 C154.254509,7.96264 154.951509,6.77430667 155.843236,5.99690667 C156.736509,5.19804 157.7596,4.83004 158.890873,4.83004 C160.589327,4.83004 162.352691,5.77917333 162.352691,8.32910667 C162.352691,8.97770667 162.221327,9.81797333 162.134782,10.2933067" id="Fill-34"></path>
                        <path d="M173.6308,8.89046 L172.281618,15.6079933 L170.7578,15.6079933 L172.085345,9.04226 C172.150255,8.69572667 172.193527,8.32772667 172.193527,8.04712667 C172.193527,6.75146 171.366709,6.14732667 170.233891,6.14732667 C169.495164,6.14732667 167.600436,6.51532667 167.078073,9.08519333 L165.772164,15.6079933 L164.248345,15.6079933 L166.381073,4.95899333 L167.861618,4.95899333 L167.643709,6.14732667 C168.362345,5.32699333 169.385436,4.83019333 170.801073,4.83019333 C172.433073,4.83019333 173.760618,5.90966 173.760618,7.83246 C173.760618,8.13452667 173.695709,8.56692667 173.6308,8.89046" id="Fill-36"></path>
                    </g>
                </g>
            </g>
        </g>
    </g>
</svg>